<svg width="20" height="20" viewBox="0 0 20 20" fill="none" xmlns="http://www.w3.org/2000/svg">
<path d="M0.027422 7.66841C0.0931004 7.46727 0.265507 7.3236 0.474857 7.29076L6.71431 6.4041L9.52207 0.759856C9.61648 0.571031 9.80941 0.451988 10.0188 0.451988C10.2281 0.451988 10.421 0.571031 10.5155 0.763961L13.2863 6.42463L19.5257 7.35233C19.7351 7.38517 19.9075 7.52885 19.9732 7.72999C20.0388 7.93113 19.9814 8.15279 19.8295 8.29646L15.3018 12.6846L16.3485 18.8994C16.3855 19.1088 16.2993 19.3181 16.1269 19.4413C16.0324 19.5111 15.9175 19.548 15.8026 19.548C15.7123 19.548 15.6261 19.5275 15.544 19.4823L9.97361 16.5309L4.38683 19.4495C4.30473 19.4905 4.21853 19.5111 4.13233 19.5111C3.82857 19.5111 3.57817 19.2607 3.57817 18.9569C3.57817 18.9117 3.58227 18.8707 3.59459 18.8297L4.67417 12.6518L0.175198 8.23899C0.0151063 8.09122 -0.0382565 7.86955 0.027422 7.66841Z"/>
</svg>
