<svg viewBox="0 0 13 13" fill="none" xmlns="http://www.w3.org/2000/svg">
	<path d="M6.47842 11.8987H1.61959C1.32158 11.8987 1.07974 11.6568 1.07974 11.3588V1.64122C1.07974 1.34321 1.32161 1.10137 1.61959 1.10137H6.47842C6.77696 1.10137 7.01827 0.860056 7.01827 0.561513C7.01827 0.26297 6.77696 0.0216064 6.47842 0.0216064H1.61959C0.726654 0.0216064 0 0.748286 0 1.64122V11.3588C0 12.2518 0.726654 12.9784 1.61959 12.9784H6.47842C6.77696 12.9784 7.01827 12.7371 7.01827 12.4386C7.01827 12.14 6.77696 11.8987 6.47842 11.8987Z" />
	<path d="M12.8405 6.11558L9.55809 2.87637C9.34646 2.6669 9.0042 2.66962 8.79473 2.88178C8.58525 3.09394 8.58741 3.43568 8.80013 3.64515L11.1458 5.96009H4.86017C4.56162 5.96009 4.32031 6.2014 4.32031 6.49994C4.32031 6.79849 4.56162 7.03982 4.86017 7.03982H11.1458L8.80013 9.35476C8.58744 9.56424 8.58581 9.90597 8.79473 10.1181C8.90053 10.225 9.03982 10.279 9.17911 10.279C9.31625 10.279 9.45336 10.2272 9.55809 10.1235L12.8405 6.88431C12.9431 6.78282 13.0014 6.64459 13.0014 6.49992C13.0014 6.35529 12.9436 6.21762 12.8405 6.11558Z" />
</svg>
