<svg viewBox="0 0 69 69" fill="none" xmlns="http://www.w3.org/2000/svg">
	<path d="M52.3982 33.5501L27.0982 16.3001C26.7452 16.0609 26.2898 16.0344 25.9126 16.2334C25.5365 16.4323 25.3008 16.8233 25.3008 17.25V51.75C25.3008 52.1766 25.5365 52.5676 25.9137 52.7666C26.0816 52.8563 26.2668 52.9 26.4508 52.9C26.6773 52.9 26.9039 52.8321 27.0982 52.6999L52.3982 35.4499C52.7122 35.236 52.9008 34.8806 52.9008 34.5C52.9008 34.1193 52.7122 33.764 52.3982 33.5501ZM27.6008 49.573V19.4269L49.7095 34.5L27.6008 49.573Z" />
	<path d="M34.5 0C15.4767 0 0 15.4767 0 34.5C0 53.5233 15.4767 69 34.5 69C53.5233 69 69 53.5233 69 34.5C69 15.4767 53.5233 0 34.5 0ZM34.5 66.7C16.7451 66.7 2.3 52.2548 2.3 34.5C2.3 16.7451 16.7451 2.3 34.5 2.3C52.2548 2.3 66.7 16.7451 66.7 34.5C66.7 52.2548 52.2548 66.7 34.5 66.7Z" />
</svg>
