<svg viewBox="0 0 17 17" fill="none" xmlns="http://www.w3.org/2000/svg">
<path d="M3.89355 3.37127C6.40339 1.10095 10.1595 1.06624 12.7041 3.13869L10.6871 3.21506C10.4268 3.22547 10.2254 3.4407 10.2359 3.70106C10.2463 3.95447 10.4546 4.15234 10.7045 4.15234C10.7114 4.15234 10.7149 4.15234 10.7219 4.15234L13.8184 4.03779C14.0718 4.02737 14.2697 3.82256 14.2697 3.56914V3.53443C14.2697 3.52749 14.2697 3.52401 14.2697 3.51707V3.5136L14.1551 0.451795C14.1447 0.191437 13.926 -0.0099058 13.6691 0.000508506C13.4088 0.0109228 13.2074 0.226152 13.2178 0.486509L13.2907 2.40621C12.0306 1.3752 10.4789 0.77811 8.81951 0.694795C6.76442 0.590652 4.78918 1.29535 3.26522 2.67698C1.16847 4.57586 0.279782 7.46409 0.946297 10.2135C0.998369 10.4287 1.1893 10.571 1.40106 10.571C1.43924 10.571 1.47396 10.5676 1.51214 10.5571C1.76208 10.4947 1.9183 10.2412 1.85581 9.9913C1.27261 7.57518 2.05021 5.03756 3.89355 3.37127Z"/>
<path d="M16.0542 6.78726C15.9917 6.53732 15.7383 6.3811 15.4883 6.44359C15.2384 6.50607 15.0822 6.75949 15.1447 7.00943C15.7313 9.42555 14.9503 11.9632 13.1069 13.6295C11.8121 14.7993 10.1874 15.3756 8.56976 15.3756C7.02497 15.3756 5.48366 14.8514 4.24088 13.8169L6.28209 13.6329C6.53897 13.6086 6.7299 13.383 6.7056 13.1226C6.6813 12.8623 6.45566 12.6748 6.1953 12.6991L3.10919 12.9768C2.85231 13.0011 2.66138 13.2268 2.68568 13.4871L2.96339 16.5732C2.98422 16.8162 3.18904 17.0002 3.42857 17.0002C3.44245 17.0002 3.45634 17.0002 3.47022 16.9968C3.72711 16.9725 3.91804 16.7468 3.89374 16.4865L3.72711 14.6084C4.98724 15.629 6.53203 16.2226 8.18096 16.3059C8.31288 16.3129 8.44479 16.3163 8.57323 16.3163C10.486 16.3163 12.305 15.6151 13.7353 14.3237C15.832 12.4249 16.7207 9.54011 16.0542 6.78726Z"/>
</svg>
