<svg width="133" height="91" viewBox="0 0 133 91" fill="none" xmlns="http://www.w3.org/2000/svg">
<path d="M98.784 90.552C90.16 90.552 82.712 87.318 76.44 80.85C70.168 74.382 67.032 65.856 67.032 55.272C67.032 51.156 67.62 46.746 68.796 42.042C70.952 33.222 74.774 25.676 80.262 19.404C85.946 12.936 92.414 8.134 99.666 4.99801C106.918 1.666 113.974 0 120.834 0C128.87 0 132.888 2.352 132.888 7.05601C132.888 8.23201 132.79 9.11401 132.594 9.702C132.006 11.858 130.83 13.72 129.066 15.288C127.302 16.66 124.558 18.62 120.834 21.168C116.522 24.304 113.386 26.852 111.426 28.812C109.466 30.772 108.486 33.124 108.486 35.868C108.486 37.632 108.976 39.396 109.956 41.16C111.132 42.924 112.896 45.276 115.248 48.216C118.384 52.332 120.736 55.762 122.304 58.506C123.872 61.25 124.656 64.386 124.656 67.914C124.656 69.874 124.362 71.932 123.774 74.088C122.206 79.38 119.266 83.496 114.954 86.436C110.642 89.18 105.252 90.552 98.784 90.552ZM31.752 90.552C23.128 90.552 15.68 87.318 9.408 80.85C3.136 74.382 0 65.856 0 55.272C0 51.156 0.588 46.746 1.764 42.042C3.92 33.222 7.742 25.676 13.23 19.404C18.914 12.936 25.382 8.134 32.634 4.99801C39.886 1.666 46.942 0 53.802 0C61.838 0 65.856 2.352 65.856 7.05601C65.856 8.23201 65.758 9.11401 65.562 9.702C64.974 11.858 63.798 13.72 62.034 15.288C60.27 16.66 57.526 18.62 53.802 21.168C49.49 24.304 46.354 26.852 44.394 28.812C42.434 30.772 41.454 33.124 41.454 35.868C41.454 37.632 41.944 39.396 42.924 41.16C44.1 42.924 45.864 45.276 48.216 48.216C51.352 52.332 53.704 55.762 55.272 58.506C56.84 61.25 57.624 64.386 57.624 67.914C57.624 69.874 57.33 71.932 56.742 74.088C55.174 79.38 52.234 83.496 47.922 86.436C43.61 89.18 38.22 90.552 31.752 90.552Z" fill="#F5F6FC"/>
</svg>
