<svg width="1920" height="320" viewBox="0 0 1920 320" fill="none" xmlns="http://www.w3.org/2000/svg">
<path d="M-507.883 -58.5046C-421.279 -96.6096 -195.964 -149.957 12.4618 -58.5046C272.994 55.8106 598.299 -19.5323 638.603 -32.5227C678.906 -45.513 1030.84 -162.426 1509.44 -5.67593C1988.04 151.074 2540.78 42.8214 2681.12 -43.781" stroke="#C448F3" stroke-width="140"/>
<path d="M-542.217 34.9359C-436.475 -15.235 -202.463 -55.4693 8.32402 38.4737C270.287 155.303 589.086 76.9868 643.201 63.6154C696.807 50.2884 1035.77 -54.074 1513.67 107.149C1991.57 268.373 2547.69 157.262 2688.46 72.0112" stroke="#B742E3" stroke-width="140"/>
<path d="M-576.373 128.563C-451.384 66.6761 -208.821 39.7003 4.28715 136.208C267.635 255.615 579.931 174.178 647.858 160.682C714.766 147.265 1040.61 55.1694 1517.72 220.903C1994.83 386.636 2554.33 272.694 2695.51 188.775" stroke="#A33DD4" stroke-width="140"/>
<path d="M-610.579 222.347C-466.227 149.105 -215.229 135.547 0.183765 234.668C264.903 356.684 570.741 271.999 652.482 258.639C732.696 245.384 1045.31 165.301 1521.62 335.537C1997.92 505.772 2560.84 389.059 2702.42 306.475" stroke="#9037C6" stroke-width="140"/>
<path d="M-644.854 316.253C-481.024 232.02 -221.71 232.038 -4.00721 333.819C262.071 458.476 561.496 370.418 657.053 357.455C750.572 344.611 1049.87 276.287 1525.34 451.017C2000.82 625.747 2567.22 506.323 2709.19 425.078" stroke="#8334BC" stroke-width="140"/>
<path d="M-679.174 410.267C-495.755 315.409 -228.244 329.157 -8.26804 433.647C259.155 560.976 552.214 469.421 661.586 457.114C768.41 444.932 1054.28 388.112 1528.91 567.329C2003.53 746.546 2573.46 624.47 2715.82 544.568" stroke="#7630B2" stroke-width="140"/>
<path d="M-713.556 504.365C-510.44 399.247 -234.853 426.881 -12.6194 534.128C256.135 664.16 542.876 568.983 666.06 557.592C786.186 546.324 1058.54 500.751 1532.29 684.446C2006.04 868.141 2579.56 743.477 2722.3 664.921" stroke="#6C2DAA" stroke-width="140"/>
</svg>
