<svg width="45" height="45" viewBox="0 0 45 45" fill="none" xmlns="http://www.w3.org/2000/svg">
<rect width="45" height="45" rx="10" fill="url(#paint0_linear)"/>
<path d="M22.4958 5.8853C15.6877 5.8853 9.22266 5.27967 6.75328 11.6172C5.73328 14.2347 5.8814 17.6341 5.8814 22.5016C5.8814 26.7728 5.74453 30.7872 6.75328 33.3841C9.21703 39.7253 15.7345 39.1178 22.492 39.1178C29.0114 39.1178 35.7333 39.7966 38.2327 33.3841C39.2545 30.7403 39.1045 27.3916 39.1045 22.5016C39.1045 16.0103 39.4627 11.8197 36.3145 8.67342C33.127 5.48592 28.8164 5.8853 22.4883 5.8853H22.4958ZM21.007 8.87967C35.2083 8.85717 37.0158 7.27843 36.0183 29.2103C35.6639 36.9672 29.7577 36.1159 22.4977 36.1159C9.26015 36.1159 8.87953 35.7372 8.87953 22.494C8.87953 9.09717 9.92953 8.88717 21.007 8.87592V8.87967ZM31.3645 11.6378C30.2639 11.6378 29.3714 12.5303 29.3714 13.6309C29.3714 14.7315 30.2639 15.624 31.3645 15.624C32.4652 15.624 33.3577 14.7315 33.3577 13.6309C33.3577 12.5303 32.4652 11.6378 31.3645 11.6378ZM22.4958 13.9684C17.7839 13.9684 13.9645 17.7897 13.9645 22.5016C13.9645 27.2134 17.7839 31.0328 22.4958 31.0328C27.2077 31.0328 31.0252 27.2134 31.0252 22.5016C31.0252 17.7897 27.2077 13.9684 22.4958 13.9684ZM22.4958 16.9628C29.8177 16.9628 29.827 28.0403 22.4958 28.0403C15.1758 28.0403 15.1645 16.9628 22.4958 16.9628Z" fill="white"/>
<defs>
<linearGradient id="paint0_linear" x1="3.02138" y1="42.0683" x2="44.7169" y2="5.97414" gradientUnits="userSpaceOnUse">
<stop stop-color="#FFDD55"/>
<stop offset="0.5" stop-color="#FF543E"/>
<stop offset="1" stop-color="#C837AB"/>
</linearGradient>
</defs>
</svg>
