<svg width="410" height="410" viewBox="0 0 410 410" fill="none" xmlns="http://www.w3.org/2000/svg">
<path d="M205 0L205.715 196.831L240.598 3.11441L207.122 197.079L275.114 12.363L208.465 197.568L307.5 27.4648L209.703 198.283L336.771 47.9609L210.798 199.202L362.039 73.2285L211.717 200.297L382.535 102.5L212.432 201.535L397.637 134.886L212.921 202.878L406.886 169.402L213.169 204.285L410 205L213.169 205.715L406.886 240.598L212.921 207.122L397.637 275.114L212.432 208.465L382.535 307.5L211.717 209.703L362.039 336.771L210.798 210.798L336.771 362.039L209.703 211.717L307.5 382.535L208.465 212.432L275.114 397.637L207.122 212.921L240.598 406.886L205.715 213.169L205 410L204.285 213.169L169.402 406.886L202.878 212.921L134.886 397.637L201.535 212.432L102.5 382.535L200.297 211.717L73.2285 362.039L199.202 210.798L47.9609 336.771L198.283 209.703L27.4648 307.5L197.568 208.465L12.363 275.114L197.079 207.122L3.11441 240.598L196.831 205.715L0 205L196.831 204.285L3.11441 169.402L197.079 202.878L12.363 134.886L197.568 201.535L27.4648 102.5L198.283 200.297L47.9609 73.2285L199.202 199.202L73.2285 47.9609L200.297 198.283L102.5 27.4648L201.535 197.568L134.886 12.363L202.878 197.079L169.402 3.11441L204.285 196.831L205 0Z" fill="white"/>
</svg>
