<svg viewBox="0 0 15 15" fill="none" xmlns="http://www.w3.org/2000/svg">
<path fill-rule="evenodd" clip-rule="evenodd" d="M7.5 1.73505L6.61293 4.58576C6.31582 5.54055 5.46371 6.18699 4.50226 6.18699H1.63164L3.95402 7.94882C4.73185 8.53891 5.05733 9.58487 4.76022 10.5397L3.87315 13.3904L6.19553 11.6285C6.97337 11.0384 8.02663 11.0384 8.80447 11.6285L11.1268 13.3904L10.2398 10.5397C9.94267 9.58487 10.2681 8.53891 11.046 7.94882L13.3684 6.18699H10.4977C9.53629 6.18699 8.68418 5.54055 8.38707 4.58576L7.5 1.73505ZM8.4594 0.727831C8.15742 -0.24261 6.84258 -0.24261 6.5406 0.72783L5.46165 4.19517C5.32661 4.62916 4.93928 4.923 4.50226 4.923H1.0107C0.0334847 4.923 -0.372823 6.22872 0.417763 6.82848L3.24249 8.97141C3.59605 9.23964 3.74399 9.71507 3.60895 10.1491L2.53 13.6164C2.22802 14.5868 3.29175 15.3938 4.08233 14.7941L6.90706 12.6511C7.26062 12.3829 7.73938 12.3829 8.09294 12.6511L10.9177 14.7941C11.7083 15.3938 12.772 14.5868 12.47 13.6164L11.3911 10.1491C11.256 9.71507 11.404 9.23964 11.7575 8.97141L14.5822 6.82848C15.3728 6.22872 14.9665 4.923 13.9893 4.923H10.4977C10.0607 4.923 9.67339 4.62916 9.53835 4.19517L8.4594 0.727831Z" fill="white"/>
</svg>
