<svg width="499" height="499" viewBox="0 0 499 499" fill="none" xmlns="http://www.w3.org/2000/svg">
<path d="M249.5 0L251.24 229.616L292.825 3.79047L254.666 230.22L334.834 15.0467L257.935 231.41L374.25 33.4267L260.949 233.15L409.875 58.3719L263.614 235.386L440.628 89.1245L265.85 238.051L465.573 124.75L267.59 241.065L483.953 164.166L268.78 244.334L495.21 206.175L269.384 247.76L499 249.5L269.384 251.24L495.21 292.825L268.78 254.666L483.953 334.834L267.59 257.935L465.573 374.25L265.85 260.949L440.628 409.875L263.614 263.614L409.875 440.628L260.949 265.85L374.25 465.573L257.935 267.59L334.834 483.953L254.666 268.78L292.825 495.21L251.24 269.384L249.5 499L247.76 269.384L206.175 495.21L244.334 268.78L164.166 483.953L241.065 267.59L124.75 465.573L238.051 265.85L89.1245 440.628L235.386 263.614L58.3719 409.875L233.15 260.949L33.4267 374.25L231.41 257.935L15.0467 334.834L230.22 254.666L3.79047 292.825L229.616 251.24L0 249.5L229.616 247.76L3.79047 206.175L230.22 244.334L15.0467 164.166L231.41 241.065L33.4267 124.75L233.15 238.051L58.3719 89.1245L235.386 235.386L89.1245 58.3719L238.051 233.15L124.75 33.4267L241.065 231.41L164.166 15.0467L244.334 230.22L206.175 3.79047L247.76 229.616L249.5 0Z" fill="#F9D85F"/>
<path fill-rule="evenodd" clip-rule="evenodd" d="M249.5 0L251.24 229.616L292.825 3.79047L254.666 230.22L334.834 15.0467L257.935 231.41L374.25 33.4267L260.949 233.15L409.875 58.3719L263.614 235.386L440.628 89.1245L265.85 238.051L465.573 124.75L267.59 241.065L483.953 164.166L268.78 244.334L495.21 206.175L269.384 247.76L499 249.5L269.384 251.24L495.21 292.825L268.78 254.666L483.953 334.834L267.59 257.935L465.573 374.25L265.85 260.949L440.628 409.875L263.614 263.614L409.875 440.628L260.949 265.85L374.25 465.573L257.935 267.59L334.834 483.953L254.666 268.78L292.825 495.21L251.24 269.384L249.5 499L247.76 269.384L206.175 495.21L244.334 268.78L164.166 483.953L241.065 267.59L124.75 465.573L238.051 265.85L89.1245 440.628L235.386 263.614L58.3719 409.875L233.15 260.949L33.4267 374.25L231.41 257.935L15.0467 334.834L230.22 254.666L3.79047 292.825L229.616 251.24L0 249.5L229.616 247.76L3.79047 206.175L230.22 244.334L15.0467 164.166L231.41 241.065L33.4267 124.75L233.15 238.051L58.3719 89.1245L235.386 235.386L89.1245 58.3719L238.051 233.15L124.75 33.4267L241.065 231.41L164.166 15.0467L244.334 230.22L206.175 3.79047L247.76 229.616L249.5 0ZM246.07 230.049L249.5 229.749L252.93 230.049L256.255 230.94L259.375 232.395L262.196 234.37L264.63 236.804L266.605 239.624L268.06 242.745L268.951 246.07L269.251 249.5L268.951 252.93L268.06 256.255L266.605 259.376L264.63 262.196L262.196 264.63L259.376 266.605L256.255 268.06L252.93 268.951L249.5 269.251L246.07 268.951L242.745 268.06L239.624 266.605L236.804 264.63L234.37 262.196L232.395 259.375L230.94 256.255L230.049 252.93L229.749 249.5L230.049 246.07L230.94 242.745L232.395 239.624L234.37 236.804L236.804 234.37L239.624 232.395L242.745 230.94L246.07 230.049Z" fill="#F9D85F"/>
</svg>
