<svg width="10" height="13" viewBox="0 0 10 13" fill="none" xmlns="http://www.w3.org/2000/svg">
<path d="M1.74569 13V10.552H0.179688V9.38195H1.74569V7.77995H0.179688V6.41195H1.74569V0.147949H5.12969C6.70169 0.147949 7.86569 0.465949 8.62169 1.10195C9.38969 1.73795 9.77369 2.66195 9.77369 3.87395C9.77369 5.09795 9.35969 6.05795 8.53169 6.75395C7.70369 7.43795 6.48569 7.77995 4.87769 7.77995H3.36569V9.38195H6.33569V10.552H3.36569V13H1.74569ZM4.64369 6.41195C5.73569 6.41195 6.58169 6.23195 7.18169 5.87195C7.79369 5.51195 8.09969 4.86395 8.09969 3.92795C8.09969 3.11195 7.84769 2.50595 7.34369 2.10995C6.83969 1.71395 6.05369 1.51595 4.98569 1.51595H3.36569V6.41195H4.64369Z" fill="#013D57"/>
</svg>
