<svg width="107" height="26" viewBox="0 0 107 26" fill="none" xmlns="http://www.w3.org/2000/svg">
<path fill-rule="evenodd" clip-rule="evenodd" d="M44.4308 15.6945C45.614 14.6185 46.2029 13.2306 46.2029 11.5256C46.2029 9.83629 45.614 8.45361 44.4308 7.37243C43.2477 6.29644 41.728 5.75584 39.8717 5.75584H35.7754V17.2851H39.8717C41.7385 17.2902 43.2582 16.7601 44.4308 15.6945ZM39.7087 7.42441C41.1653 7.42441 42.3011 7.79347 43.1057 8.52639C43.926 9.2749 44.3309 10.2729 44.3309 11.5256C44.3309 12.7784 43.9207 13.7764 43.1057 14.5249C42.3011 15.263 41.1653 15.6269 39.7087 15.6269H37.6053V7.42441H39.7087ZM57.7768 16.5833V14.7536C56.8934 15.4553 55.7891 15.8088 54.4587 15.8088C53.2072 15.8088 52.1765 15.4086 51.3615 14.6081C50.5412 13.7972 50.1363 12.768 50.1363 11.5256C50.1363 10.2833 50.5412 9.26451 51.3457 8.46401C52.166 7.65312 53.1809 7.24767 54.3956 7.24767C55.5051 7.23728 56.5989 7.55436 57.5297 8.15213V6.32243C56.6094 5.80782 55.563 5.54792 54.3798 5.54792C52.613 5.54792 51.1511 6.11451 50.0048 7.24248C48.8427 8.36005 48.2642 9.78951 48.2642 11.5256C48.2642 13.2618 48.8427 14.6912 50.0048 15.8244C51.1879 16.942 52.6445 17.5034 54.3798 17.5034C55.6734 17.5034 56.804 17.1967 57.7768 16.5833ZM61.8363 8.52639L65.0703 12.8771H66.1325L69.3665 8.52639V17.2902H71.1911V5.76104H69.3665L65.6382 10.9487L61.8731 5.76104H60.0169V17.2902H61.8416V8.52639H61.8363ZM74.6197 16.3182C75.5031 17.1083 76.5706 17.5034 77.8168 17.5034C79.0631 17.5034 80.0674 17.2383 80.8194 16.7133V15.2162C80.0306 15.6893 79.1262 15.944 78.2007 15.9388C77.3593 15.9388 76.6652 15.7464 76.1183 15.3618C75.5714 14.9771 75.2402 14.4469 75.1297 13.766H81.361V13.3034C81.361 11.6764 80.7878 10.46 79.6362 9.64916C79.0525 9.21252 78.3374 8.98901 77.496 8.98901C76.2708 8.98901 75.2612 9.39446 74.4777 10.2053C73.7047 11.0058 73.3156 12.0195 73.3156 13.2358C73.3261 14.5041 73.7573 15.5281 74.6197 16.3182ZM75.8554 11.0422C76.2708 10.6732 76.7914 10.4912 77.4224 10.4912C78.085 10.4912 78.6056 10.6888 78.9789 11.0838C79.3312 11.4425 79.5416 11.9155 79.5574 12.4197H75.1455C75.1981 11.8843 75.4505 11.3905 75.8554 11.0422ZM89.6536 16.1883V17.2902H91.4415V5.76104H89.6536V10.3093C88.97 9.43084 88.0025 8.99421 86.7509 8.98901C85.5993 8.98901 84.6581 9.39965 83.9166 10.2261C83.1752 11.037 82.8071 12.0454 82.8071 13.241C82.8071 14.4469 83.1752 15.4605 83.9166 16.2714C84.6581 17.0927 85.6046 17.5086 86.7509 17.5086C88.0025 17.5034 88.97 17.0667 89.6536 16.1883ZM85.3627 15.1643C84.8632 14.6393 84.616 13.9947 84.616 13.2358C84.616 12.4873 84.8632 11.8583 85.3627 11.3437C85.8623 10.8187 86.4828 10.5536 87.2347 10.5536C87.7343 10.5536 88.2286 10.694 88.6492 10.9591C89.0699 11.2086 89.4117 11.5672 89.6536 11.9883V14.4937C89.4222 14.9251 89.0752 15.2838 88.6598 15.5385C88.2338 15.8036 87.7395 15.944 87.2347 15.944C86.4828 15.9388 85.857 15.6841 85.3627 15.1643ZM95.9375 9.20213H94.1443V17.2902H95.9375V9.20213ZM95.8323 7.4348C96.0479 7.22168 96.1636 6.93579 96.1583 6.63431C96.1636 6.33282 96.0479 6.04173 95.8323 5.82861C95.6272 5.6155 95.3433 5.49594 95.0435 5.50114C94.7385 5.49594 94.4493 5.6155 94.239 5.82861C94.0234 6.04173 93.9077 6.33282 93.9182 6.63431C93.9077 6.93059 94.0287 7.22168 94.239 7.4348C94.4493 7.64792 94.7438 7.76228 95.0435 7.75708C95.338 7.76228 95.622 7.64272 95.8323 7.4348ZM105.792 15.6945C105.666 15.5541 105.603 15.3566 105.603 15.1019V12.087C105.603 11.1098 105.261 10.3509 104.582 9.8051C103.904 9.25931 102.989 8.98901 101.837 8.98901C100.665 8.98901 99.6762 9.21772 98.8717 9.68035V11.245C99.6394 10.7667 100.533 10.5172 101.443 10.5224C103.036 10.5224 103.83 11.1098 103.83 12.2846V12.7316C103.078 12.3157 102.211 12.1078 101.227 12.1078C100.297 12.1078 99.5238 12.3417 98.9085 12.8148C98.2775 13.2774 97.962 13.9323 97.962 14.79C97.962 15.6477 98.2512 16.313 98.8244 16.7808C99.4081 17.2643 100.139 17.5034 101.012 17.5034C102.274 17.5034 103.273 17.0875 104.014 16.2506C104.225 17.02 104.793 17.4046 105.723 17.4046C106.176 17.4046 106.523 17.3162 106.77 17.1395V15.788C106.623 15.866 106.454 15.9076 106.291 15.9024C106.097 15.9128 105.913 15.8348 105.792 15.6945ZM102.8 15.6997C102.395 15.8764 101.953 15.97 101.506 15.97C100.965 15.97 100.539 15.8608 100.223 15.6425C99.9076 15.4242 99.7499 15.1019 99.7499 14.686C99.7393 14.3118 99.9339 13.9583 100.255 13.766C100.591 13.5477 101.059 13.4385 101.653 13.4385C102.416 13.4385 103.163 13.636 103.825 14.0155V15.0031C103.541 15.3046 103.189 15.5437 102.8 15.6997Z" fill="#2D2D2D"/>
<path fill-rule="evenodd" clip-rule="evenodd" d="M36.0475 20.5391H35.9055V24.1414H36.0475V20.5391ZM35.8424 19.0785C35.753 19.1668 35.753 19.25 35.8424 19.3384C35.9318 19.4267 36.0212 19.4267 36.1106 19.3384C36.2 19.25 36.2 19.1668 36.1106 19.0785C36.0212 18.9901 35.9318 18.9901 35.8424 19.0785ZM39.4813 20.8458C39.7705 20.6743 40.1018 20.5807 40.4436 20.5755C41.3323 20.5755 41.7792 21.0433 41.7792 21.979V24.1414H41.9212V21.953C41.9212 21.4696 41.795 21.0953 41.5479 20.8354C41.3007 20.5755 40.9379 20.4456 40.4594 20.4456C40.1281 20.4456 39.7968 20.5235 39.5076 20.6743C39.2289 20.8094 38.9817 21.0069 38.7872 21.2513V20.5391H38.6452V24.1414H38.7872V21.4748C38.9607 21.2149 39.2026 21.0017 39.4813 20.8458ZM46.4014 24.0634V23.9178C46.2016 24.0426 45.9702 24.1102 45.7284 24.1102C45.2235 24.1102 44.9711 23.8451 44.9711 23.3149V20.6743H46.4645V20.5443H44.9711V19.3176H44.8292V20.5443H43.8195V20.6743H44.8292V23.3513C44.8292 23.6475 44.908 23.8711 45.071 24.0166C45.2288 24.1673 45.4497 24.2401 45.7284 24.2401C45.965 24.2453 46.2016 24.1829 46.4014 24.0634ZM51.4601 23.9178V23.7723C51.1341 23.9958 50.7344 24.1102 50.2506 24.1102C49.7143 24.1102 49.2673 23.9438 48.9097 23.6112C48.5574 23.2733 48.3839 22.8522 48.3839 22.348V22.2961H51.7598V22.2441C51.7598 22.1037 51.744 21.9634 51.7177 21.8282C51.6809 21.6671 51.6284 21.506 51.5547 21.3552C51.4811 21.1941 51.3812 21.0433 51.255 20.9082C51.1183 20.7678 50.95 20.6587 50.7607 20.5859C50.5399 20.4975 50.3032 20.4508 50.0613 20.456C49.525 20.456 49.0885 20.6327 48.752 20.9914C48.4102 21.3552 48.2366 21.8074 48.2366 22.348C48.2366 22.8938 48.4312 23.3461 48.8151 23.7047C49.1989 24.0634 49.6775 24.2401 50.2506 24.2401C50.7554 24.2401 51.1604 24.131 51.4601 23.9178ZM48.8729 21.0693C49.1727 20.7418 49.5723 20.5807 50.0666 20.5807C50.319 20.5755 50.5714 20.6275 50.7975 20.7366C50.9973 20.8302 51.1656 20.9758 51.2918 21.1525C51.5022 21.4488 51.6178 21.797 51.6231 22.1557H48.3944C48.4154 21.7555 48.5837 21.3656 48.8729 21.0693ZM54.0998 21.5995C54.2418 21.3188 54.4522 21.0693 54.7151 20.8874C54.9727 20.6899 55.2882 20.5807 55.6143 20.5807V20.4508C55.2725 20.456 54.9464 20.5599 54.6677 20.7522C54.4364 20.9134 54.2418 21.1213 54.0998 21.3656V20.5443H53.9579V24.1466H54.0998V21.5995ZM58.3171 20.8458C58.6063 20.6743 58.9376 20.5807 59.2794 20.5755C60.1681 20.5755 60.6151 21.0433 60.6151 21.979V24.1414H60.7571V21.953C60.7571 21.4696 60.6309 21.0953 60.3837 20.8354C60.1366 20.5755 59.7737 20.4456 59.2952 20.4456C58.9639 20.4456 58.6326 20.5235 58.3382 20.6743C58.0595 20.8094 57.8123 21.0069 57.6178 21.2513V20.5391H57.4758V24.1414H57.6178V21.4748C57.7965 21.2149 58.0332 21.0017 58.3171 20.8458ZM66.1102 23.9178V23.7723C65.7842 23.9958 65.3845 24.1102 64.9007 24.1102C64.3644 24.1102 63.9174 23.9438 63.5598 23.6112C63.2075 23.2733 63.034 22.8522 63.034 22.348V22.2961H66.4099V22.2441C66.4099 22.1037 66.3941 21.9634 66.3678 21.8282C66.331 21.6671 66.2785 21.506 66.2048 21.3552C66.1312 21.1941 66.0313 21.0433 65.9051 20.9082C65.7684 20.7678 65.6001 20.6587 65.4108 20.5859C65.1899 20.4975 64.9533 20.4508 64.7114 20.456C64.1751 20.456 63.7386 20.6327 63.4021 20.9914C63.0603 21.3552 62.8867 21.8074 62.8867 22.348C62.8867 22.8938 63.0813 23.3461 63.4652 23.7047C63.849 24.0634 64.3276 24.2401 64.9007 24.2401C65.4108 24.2401 65.8104 24.131 66.1102 23.9178ZM63.523 21.0693C63.8227 20.7418 64.2224 20.5807 64.7167 20.5807C64.9691 20.5755 65.2215 20.6275 65.4476 20.7366C65.6474 20.8302 65.8157 20.9758 65.9419 21.1525C66.1522 21.4488 66.2679 21.797 66.2732 22.1557H63.0445C63.0655 21.7555 63.2391 21.3656 63.523 21.0693ZM70.5956 24.0634V23.9178C70.3958 24.0426 70.1645 24.1102 69.9226 24.1102C69.4178 24.1102 69.1654 23.8451 69.1654 23.3149V20.6743H70.6588V20.5443H69.1654V19.3176H69.0234V20.5443H68.0137V20.6743H69.0234V23.3513C69.0234 23.6475 69.1022 23.8711 69.2653 24.0166C69.4283 24.1621 69.6439 24.2401 69.9226 24.2401C70.1592 24.2453 70.3906 24.1829 70.5956 24.0634ZM78.7726 23.4812C78.7726 23.6995 78.8252 23.8711 78.9356 23.9906C79.0407 24.1102 79.1932 24.1725 79.3563 24.1725C79.4299 24.1725 79.5088 24.1621 79.5771 24.1362V24.0062C79.5088 24.0322 79.4351 24.0478 79.3615 24.0426C79.2301 24.0478 79.1039 23.9906 79.0302 23.8866C78.9461 23.7619 78.904 23.6112 78.9093 23.4604V21.7399C78.9093 21.3136 78.7673 20.9966 78.4834 20.7782C78.1994 20.5599 77.8208 20.4508 77.337 20.4508C76.8164 20.4508 76.38 20.5755 76.0329 20.8198V20.9706C76.4115 20.7107 76.8637 20.5703 77.3265 20.5807C77.7892 20.5807 78.1468 20.6795 78.394 20.877C78.6411 21.0745 78.7673 21.3604 78.7673 21.7347V22.3636C78.2941 22.0777 77.7472 21.9218 77.1898 21.9166C76.727 21.9166 76.3484 22.0258 76.0592 22.2441C75.7805 22.4364 75.6175 22.7483 75.628 23.081C75.628 23.4448 75.77 23.7307 76.0539 23.9386C76.3537 24.1414 76.7113 24.2453 77.0741 24.2401C77.7314 24.2505 78.3572 23.9698 78.7726 23.4812ZM76.1696 23.8555C75.9067 23.6787 75.7752 23.4188 75.7752 23.081C75.7752 22.7743 75.9067 22.5248 76.1749 22.3324C76.4431 22.1401 76.7954 22.0465 77.2371 22.0465C77.7524 22.0465 78.2678 22.2025 78.7778 22.5196V23.2733C78.5938 23.5124 78.3572 23.7151 78.089 23.8659C77.7945 24.027 77.4632 24.1154 77.1267 24.1102C76.7901 24.1154 76.4588 24.027 76.1696 23.8555ZM84.4465 25.2745C84.7883 24.9886 84.9618 24.5832 84.9618 24.053V20.5391H84.8198V21.2617C84.4359 20.7211 83.8943 20.4508 83.2002 20.4508C82.627 20.4508 82.159 20.6379 81.7962 21.0173C81.081 21.7659 81.081 22.9302 81.7962 23.6787C82.159 24.053 82.627 24.2401 83.2002 24.2401C83.8943 24.2401 84.4359 23.9698 84.8198 23.4292V24.053C84.8198 24.5364 84.6621 24.9159 84.3413 25.181C84.0258 25.4461 83.5893 25.5812 83.0424 25.5812C82.5429 25.5916 82.0539 25.4616 81.6279 25.2121V25.3629C82.0644 25.5968 82.5587 25.7164 83.0582 25.706C83.6419 25.7008 84.1047 25.5604 84.4465 25.2745ZM81.9171 23.6008C81.5806 23.2629 81.3965 22.8107 81.4018 22.3428C81.3913 21.875 81.5753 21.4228 81.9171 21.0901C82.2537 20.7522 82.7217 20.5651 83.2055 20.5755C83.5473 20.5755 83.8838 20.6639 84.173 20.8406C84.457 21.0017 84.6831 21.2409 84.8251 21.5267V23.1537C84.6831 23.4396 84.457 23.6787 84.173 23.8399C83.8838 24.0166 83.5473 24.105 83.2055 24.105C82.7217 24.1206 82.2537 23.9334 81.9171 23.6008ZM90.399 23.9178V23.7723C90.073 23.9958 89.6681 24.1102 89.1896 24.1102C88.6532 24.1102 88.2063 23.9438 87.8487 23.6112C87.4964 23.2733 87.3176 22.8522 87.3176 22.348V22.2961H90.6935V22.2441C90.6935 22.1037 90.6777 21.9634 90.6514 21.8282C90.6146 21.6671 90.5621 21.506 90.4884 21.3552C90.4148 21.1941 90.3096 21.0433 90.1887 20.9082C90.0467 20.7678 89.8785 20.6587 89.6944 20.5859C89.4736 20.4975 89.2369 20.4508 88.995 20.456C88.4587 20.456 88.0222 20.6327 87.6857 20.9914C87.3439 21.3552 87.1703 21.8074 87.1703 22.348C87.1703 22.8938 87.3649 23.3461 87.7488 23.7047C88.1326 24.0634 88.6112 24.2401 89.1843 24.2401C89.6944 24.2401 90.0993 24.131 90.399 23.9178ZM87.8119 21.0693C88.1116 20.7418 88.5112 20.5807 89.0055 20.5807C89.258 20.5755 89.5104 20.6275 89.7365 20.7366C89.9363 20.8302 90.1046 20.9758 90.2308 21.1525C90.4411 21.4488 90.5568 21.797 90.5621 22.1557H87.3334C87.3544 21.7555 87.5227 21.3656 87.8119 21.0693ZM93.7329 20.8458C94.0221 20.6743 94.3534 20.5807 94.6952 20.5755C95.5839 20.5755 96.0309 21.0433 96.0309 21.979V24.1414H96.1728V21.953C96.1728 21.4696 96.0466 21.0953 95.7995 20.8354C95.5523 20.5755 95.1895 20.4456 94.711 20.4456C94.3797 20.4456 94.0484 20.5235 93.7539 20.6743C93.4752 20.8094 93.2281 21.0069 93.0335 21.2513V20.5391H92.8916V24.1414H93.0335V21.4748C93.2176 21.2149 93.4542 21.0017 93.7329 20.8458ZM98.8494 23.6787C99.2017 24.053 99.6697 24.2401 100.248 24.2401C100.711 24.2401 101.111 24.1258 101.452 23.9022V23.7463C101.1 23.9906 100.679 24.1154 100.248 24.105C99.7696 24.1154 99.3069 23.9334 98.9703 23.6008C98.6338 23.2629 98.4498 22.8107 98.455 22.3428C98.4445 21.875 98.6285 21.4228 98.9703 21.0901C99.3016 20.7522 99.7696 20.5651 100.248 20.5755C100.648 20.5703 101.037 20.6795 101.379 20.8874V20.7315C101.037 20.5339 100.648 20.43 100.248 20.4404C99.675 20.4404 99.207 20.6275 98.8494 21.0069C98.1342 21.7659 98.1342 22.925 98.8494 23.6787ZM104.266 25.4357C104.444 25.2589 104.634 24.9678 104.828 24.5676L106.763 20.5391H106.606L105.018 23.8295L103.398 20.5391H103.24L104.939 23.9958C104.697 24.552 104.481 24.9574 104.292 25.2069C104.108 25.4461 103.887 25.5656 103.624 25.5656C103.456 25.5656 103.293 25.524 103.151 25.4409V25.5812C103.298 25.6592 103.466 25.7008 103.635 25.6956C103.871 25.706 104.103 25.6072 104.266 25.4357Z" fill="#2D2D2D"/>
<path fill-rule="evenodd" clip-rule="evenodd" d="M0.132812 0.796875L15.6874 4.64341L30.7897 0.796875V23.1691C30.7897 23.9852 32.7563 24.4583 32.7563 24.4583H29.1806V3.04242L15.6663 6.42113L1.99431 3.04242V24.4583H0.132812V0.796875Z" fill="#2D2D2D"/>
<path fill-rule="evenodd" clip-rule="evenodd" d="M26.4161 7.95996L16.6406 13.4231L26.4687 18.8186L19.0017 13.4283L26.4161 7.95996Z" fill="#2D2D2D"/>
<path fill-rule="evenodd" clip-rule="evenodd" d="M5.06055 7.99084C5.06055 7.99084 11.1867 7.64257 14.8308 13.428C11.7703 18.5896 5.68105 18.8443 5.67579 18.8443L5.08158 18.8599L5.06055 7.99084Z" fill="#2D2D2D"/>
<path fill-rule="evenodd" clip-rule="evenodd" d="M5.46484 8.49476C5.46484 8.49476 11.0546 8.18288 14.3516 13.4069C11.5857 18.0695 6.07483 18.3502 6.07483 18.3502L5.48062 18.3658L5.46484 8.49476Z" fill="#EAC63C"/>
<path d="M9.08865 16.5005C9.84955 16.5005 10.4664 15.1576 10.4664 13.5012C10.4664 11.8448 9.84955 10.502 9.08865 10.502C8.32776 10.502 7.71094 11.8448 7.71094 13.5012C7.71094 15.1576 8.32776 16.5005 9.08865 16.5005Z" fill="#2D2D2D"/>
<path fill-rule="evenodd" clip-rule="evenodd" d="M8.99414 10.1172L9.36223 12.8254L9.91437 10.3095" fill="#EAC63C"/>
</svg>
