<svg width="292" height="76" viewBox="0 0 292 76" fill="none" xmlns="http://www.w3.org/2000/svg">
<path d="M110.45 62.715C110.45 61.91 110.289 61.2733 109.971 60.802C109.651 60.3337 109.146 60.0986 108.455 60.0986C108.141 60.0986 107.846 60.1456 107.568 60.2387C107.29 60.3337 107.068 60.436 106.901 60.5524V65.2697C107.037 65.3003 107.212 65.3295 107.426 65.3552C107.64 65.3808 107.899 65.3937 108.204 65.3937C108.905 65.3937 109.454 65.1559 109.852 64.6803C110.251 64.2061 110.45 63.5504 110.45 62.715V62.715ZM112.397 62.746C112.397 63.4034 112.3 63.9976 112.107 64.5225C111.913 65.0506 111.636 65.5045 111.274 65.88C110.913 66.2559 110.475 66.5424 109.963 66.74C109.45 66.941 108.868 67.0393 108.219 67.0393C107.591 67.0393 106.992 66.9923 106.421 66.8972C105.85 66.8038 105.377 66.6989 105 66.5851V54.9907L106.901 54.6763V58.9222C107.12 58.8094 107.39 58.7032 107.708 58.6075C108.029 58.5151 108.382 58.4691 108.769 58.4691C109.345 58.4691 109.861 58.569 110.316 58.7733C110.771 58.9762 111.15 59.2676 111.455 59.6428C111.758 60.02 111.99 60.4722 112.153 60.9977C112.316 61.5252 112.397 62.1073 112.397 62.746V62.746Z" fill="#22425A"/>
<path d="M120.579 58.6417C119.732 61.7557 118.75 64.5745 117.633 67.1015C117.422 67.5714 117.208 67.9739 116.987 68.309C116.768 68.6435 116.522 68.9188 116.25 69.1375C115.975 69.3588 115.672 69.5163 115.337 69.6173C115.001 69.7172 114.615 69.7666 114.174 69.7666C113.88 69.7666 113.59 69.736 113.3 69.6702C113.012 69.6087 112.797 69.5416 112.649 69.4676L112.995 67.9486C113.373 68.0953 113.746 68.1673 114.115 68.1673C114.609 68.1673 114.995 68.0509 115.273 67.8131C115.552 67.58 115.796 67.2166 116.008 66.7249C115.408 65.5762 114.832 64.3229 114.279 62.9653C113.728 61.6088 113.236 60.1657 112.807 58.6417H114.831C114.937 59.0801 115.065 59.5553 115.219 60.0657C115.37 60.5787 115.536 61.0987 115.715 61.6259C115.893 62.154 116.081 62.6799 116.281 63.1998C116.482 63.722 116.681 64.2091 116.882 64.6573C117.214 63.727 117.527 62.7387 117.818 61.6874C118.111 60.6376 118.376 59.6231 118.616 58.6417H120.579V58.6417Z" fill="#22425A"/>
<path d="M131.65 66.8354C131.377 66.4191 131.064 65.978 130.707 65.5196C130.352 65.0592 129.977 64.6152 129.585 64.188C129.192 63.7579 128.786 63.3517 128.368 62.9653C127.948 62.5792 127.535 62.2448 127.127 61.9636V66.8354H125.148V55.9769H127.127V60.4574C127.473 60.1154 127.834 59.7467 128.21 59.3554C128.587 58.9614 128.962 58.5644 129.333 58.1629C129.705 57.761 130.059 57.373 130.394 56.9961C130.728 56.6205 131.031 56.2805 131.305 55.9769H133.675C133.33 56.3739 132.963 56.7882 132.576 57.2154C132.189 57.643 131.792 58.0754 131.382 58.5082C130.975 58.9407 130.563 59.3734 130.15 59.8006C129.736 60.2282 129.33 60.6376 128.934 61.024C129.373 61.3555 129.821 61.7449 130.275 62.1902C130.731 62.6328 131.178 63.1097 131.619 63.6168C132.059 64.1213 132.479 64.6494 132.884 65.1983C133.286 65.7472 133.655 66.2918 133.991 66.8354H131.65V66.8354Z" fill="#22425A"/>
<path d="M137.209 65.474C137.712 65.474 138.079 65.4125 138.309 65.2938C138.54 65.1724 138.655 64.9666 138.655 64.6732C138.655 64.4022 138.531 64.1783 138.285 64.0003C138.039 63.8228 137.634 63.6304 137.069 63.4215C136.723 63.2953 136.406 63.1617 136.118 63.0197C135.83 62.8816 135.582 62.7155 135.371 62.5283C135.162 62.3402 134.997 62.1104 134.877 61.8453C134.757 61.5802 134.696 61.2537 134.696 60.8666C134.696 60.1151 134.974 59.5199 135.529 59.0874C136.084 58.655 136.837 58.4396 137.791 58.4396C138.273 58.4396 138.734 58.4823 139.172 58.5705C139.612 58.6602 139.942 58.7454 140.162 58.8309L139.816 60.3648C139.607 60.2697 139.339 60.1852 139.015 60.1072C138.691 60.028 138.314 59.9895 137.885 59.9895C137.497 59.9895 137.184 60.0536 136.942 60.1852C136.702 60.3161 136.581 60.517 136.581 60.7877C136.581 60.9238 136.605 61.0442 136.652 61.1478C136.7 61.2537 136.781 61.3484 136.896 61.4385C137.01 61.5263 137.163 61.6164 137.351 61.7042C137.539 61.794 137.769 61.8844 138.041 61.9795C138.492 62.1462 138.874 62.312 139.189 62.4711C139.502 62.6336 139.762 62.8164 139.966 63.0197C140.17 63.2232 140.32 63.4574 140.414 63.7175C140.508 63.9806 140.554 64.292 140.554 64.6577C140.554 65.4408 140.264 66.035 139.683 66.4369C139.102 66.8384 138.273 67.0394 137.194 67.0394C136.472 67.0394 135.89 66.9802 135.45 66.8588C135.011 66.7401 134.702 66.6428 134.524 66.5711L134.854 64.9876C135.137 65.1024 135.475 65.2109 135.867 65.3161C136.26 65.4204 136.707 65.474 137.209 65.474V65.474Z" fill="#22425A"/>
<path d="M147.072 61.9298C147.072 61.67 147.035 61.4227 146.961 61.1859C146.889 60.9511 146.781 60.7485 146.639 60.5756C146.498 60.4029 146.326 60.2697 146.121 60.1678C145.917 60.0678 145.675 60.0201 145.392 60.0201C145.098 60.0201 144.842 60.0731 144.622 60.1839C144.402 60.2954 144.216 60.4361 144.064 60.614C143.912 60.792 143.794 60.9952 143.711 61.227C143.627 61.4563 143.569 61.6904 143.538 61.9298H147.072V61.9298ZM141.559 62.777C141.559 62.0555 141.666 61.4254 141.881 60.8817C142.096 60.3388 142.381 59.885 142.737 59.5248C143.093 59.1651 143.502 58.8941 143.962 58.7112C144.423 58.5284 144.894 58.4386 145.376 58.4386C146.507 58.4386 147.388 58.7879 148.022 59.4867C148.655 60.1868 148.972 61.232 148.972 62.6204C148.972 62.7254 148.969 62.8411 148.964 62.9733C148.959 63.1042 148.951 63.2232 148.941 63.3259H143.522C143.574 63.9849 143.807 64.4917 144.221 64.8525C144.634 65.2132 145.234 65.3938 146.019 65.3938C146.48 65.3938 146.901 65.3527 147.284 65.2698C147.666 65.1849 147.966 65.0968 148.187 65.0021L148.437 66.552C148.332 66.6066 148.189 66.6605 148.006 66.7171C147.823 66.776 147.613 66.8273 147.378 66.8743C147.141 66.9204 146.889 66.9615 146.616 66.9924C146.344 67.023 146.067 67.0394 145.784 67.0394C145.061 67.0394 144.433 66.9309 143.898 66.7171C143.366 66.5034 142.926 66.2074 142.58 65.8262C142.234 65.4424 141.978 64.9945 141.811 64.4762C141.643 63.9592 141.559 63.3923 141.559 62.777V62.777Z" fill="#22425A"/>
<path d="M150.669 58.9067C151.036 58.8045 151.512 58.7035 152.098 58.6078C152.685 58.5154 153.334 58.4694 154.046 58.4694C154.716 58.4694 155.276 58.5598 155.727 58.743C156.176 58.9252 156.535 59.1823 156.801 59.5099C157.069 59.8397 157.257 60.2363 157.367 60.7024C157.477 61.1657 157.532 61.6748 157.532 62.2289V66.835H155.632V62.5276C155.632 62.0872 155.603 61.7136 155.546 61.4074C155.488 61.098 155.393 60.8484 155.263 60.6553C155.132 60.4619 154.954 60.3209 154.729 60.2301C154.503 60.1433 154.228 60.0995 153.904 60.0995C153.663 60.0995 153.413 60.115 153.15 60.1456C152.889 60.1765 152.695 60.2031 152.57 60.2229V66.835H150.669V58.9067V58.9067Z" fill="#22425A"/>
<path d="M161.457 66.8359H159.556V58.6419H161.457V66.8359ZM161.661 56.2451C161.661 56.5996 161.546 56.8811 161.316 57.0887C161.086 57.2975 160.813 57.4034 160.498 57.4034C160.175 57.4034 159.897 57.2975 159.666 57.0887C159.437 56.8811 159.321 56.5996 159.321 56.2451C159.321 55.8791 159.437 55.5904 159.666 55.3815C159.897 55.174 160.175 55.0681 160.498 55.0681C160.813 55.0681 161.086 55.174 161.316 55.3815C161.546 55.5904 161.661 55.8791 161.661 56.2451Z" fill="#22425A"/>
<path d="M166.45 65.5049C167.037 65.5049 167.481 65.474 167.786 65.4092V63.3114C167.679 63.2795 167.528 63.2489 167.33 63.2157C167.131 63.1848 166.911 63.1693 166.67 63.1693C166.46 63.1693 166.249 63.1848 166.034 63.2157C165.819 63.2489 165.626 63.3051 165.453 63.3874C165.28 63.4729 165.141 63.5889 165.037 63.7412C164.932 63.8925 164.879 64.0829 164.879 64.3115C164.879 64.7627 165.021 65.0715 165.304 65.2441C165.586 65.4168 165.968 65.5049 166.45 65.5049V65.5049ZM166.294 58.4386C166.921 58.4386 167.45 58.5155 167.88 58.6727C168.308 58.8299 168.651 59.049 168.908 59.3292C169.164 59.6123 169.348 59.956 169.457 60.3575C169.568 60.7587 169.624 61.2014 169.624 61.6802V66.6477C169.329 66.7092 168.886 66.7872 168.296 66.875C167.704 66.9651 167.037 67.0085 166.294 67.0085C165.8 67.0085 165.35 66.9615 164.943 66.8667C164.535 66.7733 164.186 66.6221 163.898 66.4129C163.61 66.2047 163.385 65.9321 163.222 65.597C163.061 65.2655 162.98 64.8501 162.98 64.3611C162.98 63.8899 163.071 63.4932 163.255 63.1693C163.438 62.8444 163.686 62.582 164 62.3787C164.314 62.1742 164.678 62.0288 165.093 61.941C165.505 61.8509 165.937 61.8068 166.388 61.8068C166.597 61.8068 166.817 61.8197 167.047 61.8453C167.277 61.871 167.524 61.9154 167.786 61.9795V61.6657C167.786 61.4457 167.758 61.2382 167.707 61.0389C167.654 60.8416 167.562 60.6663 167.432 60.5141C167.301 60.3621 167.128 60.2441 166.913 60.1612C166.699 60.0757 166.429 60.0352 166.106 60.0352C165.665 60.0352 165.261 60.0661 164.895 60.1303C164.528 60.1918 164.23 60.2645 164 60.349L163.765 58.8148C164.006 58.7293 164.357 58.6481 164.818 58.5626C165.278 58.4797 165.769 58.4386 166.294 58.4386V58.4386Z" fill="#22425A"/>
<path d="M177.02 61.9486V65.2517C177.239 65.2757 177.476 65.2908 177.727 65.3014C177.977 65.3116 178.209 65.3158 178.418 65.3158C178.826 65.3158 179.207 65.2908 179.556 65.2369C179.906 65.185 180.211 65.0952 180.466 64.9633C180.723 64.8327 180.928 64.6575 181.08 64.4384C181.231 64.2191 181.307 63.9359 181.307 63.5913C181.307 62.976 181.082 62.5484 180.632 62.3067C180.182 62.0673 179.559 61.9486 178.764 61.9486H177.02V61.9486ZM177.02 60.396H178.418C179.172 60.396 179.763 60.2911 180.192 60.0737C180.622 59.8603 180.836 59.4762 180.836 58.923C180.836 58.3998 180.613 58.0288 180.169 57.8102C179.723 57.5911 179.145 57.48 178.433 57.48C178.13 57.48 177.86 57.4852 177.625 57.4964C177.389 57.5092 177.188 57.5247 177.02 57.5451V60.396V60.396ZM178.356 66.9615C177.779 66.9615 177.198 66.9441 176.612 66.9056C176.025 66.8691 175.513 66.7947 175.073 66.6783V56.1336C175.302 56.0928 175.549 56.0534 175.811 56.0155C176.073 55.9797 176.34 55.9508 176.612 55.93C176.885 55.9106 177.154 55.8942 177.42 55.884C177.687 55.8748 177.941 55.8685 178.183 55.8685C178.842 55.8685 179.454 55.9172 180.019 56.0155C180.585 56.1158 181.075 56.2809 181.487 56.5098C181.902 56.739 182.223 57.0432 182.455 57.4185C182.684 57.7957 182.8 58.2617 182.8 58.8145C182.8 59.3249 182.677 59.7643 182.431 60.13C182.184 60.496 181.841 60.7874 181.401 61.0057C182.062 61.2267 182.548 61.549 182.862 61.9792C183.177 62.4067 183.333 62.9503 183.333 63.6087C183.333 64.7268 182.925 65.5638 182.108 66.1229C181.291 66.681 180.041 66.9615 178.356 66.9615V66.9615Z" fill="#22425A"/>
<path d="M190.462 62.7316C190.462 61.9153 190.287 61.2718 189.937 60.7946C189.587 60.322 189.096 60.0816 188.469 60.0816C187.84 60.0816 187.351 60.322 187 60.7946C186.649 61.2718 186.474 61.9153 186.474 62.7316C186.474 63.5557 186.649 64.2098 187 64.6883C187.351 65.1708 187.84 65.4092 188.469 65.4092C189.096 65.4092 189.587 65.1708 189.937 64.6883C190.287 64.2098 190.462 63.5557 190.462 62.7316ZM192.409 62.7316C192.409 63.3781 192.316 63.9671 192.127 64.5005C191.939 65.033 191.671 65.4895 191.327 65.865C190.981 66.2409 190.565 66.5316 190.078 66.7401C189.591 66.9522 189.054 67.0558 188.469 67.0558C187.881 67.0558 187.347 66.9522 186.867 66.7401C186.384 66.5316 185.972 66.2409 185.625 65.865C185.28 65.4895 185.011 65.033 184.816 64.5005C184.624 63.9671 184.526 63.3781 184.526 62.7316C184.526 62.0821 184.624 61.4957 184.816 60.9682C185.011 60.4391 185.282 59.9895 185.634 59.6133C185.984 59.2371 186.401 58.9457 186.883 58.7431C187.364 58.5395 187.892 58.4396 188.469 58.4396C189.045 58.4396 189.576 58.5395 190.063 58.7431C190.549 58.9457 190.965 59.2371 191.31 59.6133C191.656 59.9895 191.926 60.4391 192.12 60.9682C192.313 61.4957 192.409 62.0821 192.409 62.7316V62.7316Z" fill="#22425A"/>
<path d="M198.738 60.3491C198.581 60.2978 198.364 60.2416 198.087 60.185C197.808 60.1274 197.487 60.0995 197.12 60.0995C196.911 60.0995 196.688 60.1199 196.453 60.161C196.218 60.2028 196.053 60.2386 195.959 60.2695V66.8356H194.059V59.0333C194.425 58.8975 194.883 58.7683 195.433 58.6502C195.982 58.5288 196.591 58.47 197.262 58.47C197.388 58.47 197.534 58.4779 197.701 58.4923C197.869 58.5085 198.037 58.5288 198.205 58.5538C198.372 58.5802 198.534 58.6143 198.69 58.6502C198.848 58.6864 198.973 58.7196 199.068 58.7505L198.738 60.3491V60.3491Z" fill="#22425A"/>
<path d="M205.554 62.7316C205.554 61.9153 205.378 61.2718 205.028 60.7946C204.678 60.322 204.187 60.0816 203.56 60.0816C202.931 60.0816 202.443 60.322 202.091 60.7946C201.741 61.2718 201.565 61.9153 201.565 62.7316C201.565 63.5557 201.741 64.2098 202.091 64.6883C202.443 65.1708 202.931 65.4092 203.56 65.4092C204.187 65.4092 204.678 65.1708 205.028 64.6883C205.378 64.2098 205.554 63.5557 205.554 62.7316ZM207.501 62.7316C207.501 63.3781 207.407 63.9671 207.218 64.5005C207.03 65.033 206.763 65.4895 206.418 65.865C206.072 66.2409 205.656 66.5316 205.169 66.7401C204.682 66.9522 204.145 67.0558 203.56 67.0558C202.973 67.0558 202.438 66.9522 201.958 66.7401C201.475 66.5316 201.063 66.2409 200.717 65.865C200.371 65.4895 200.102 65.033 199.908 64.5005C199.715 63.9671 199.618 63.3781 199.618 62.7316C199.618 62.0821 199.715 61.4957 199.908 60.9682C200.102 60.4391 200.373 59.9895 200.725 59.6133C201.075 59.2371 201.492 58.9457 201.974 58.7431C202.455 58.5395 202.983 58.4396 203.56 58.4396C204.135 58.4396 204.667 58.5395 205.154 58.7431C205.64 58.9457 206.057 59.2371 206.401 59.6133C206.748 59.9895 207.017 60.4391 207.211 60.9682C207.405 61.4957 207.501 62.0821 207.501 62.7316V62.7316Z" fill="#22425A"/>
<path d="M210.642 62.715C210.642 63.5504 210.841 64.2061 211.239 64.6803C211.637 65.1559 212.187 65.3937 212.888 65.3937C213.192 65.3937 213.45 65.3808 213.666 65.3552C213.88 65.3295 214.054 65.3003 214.191 65.2697V60.5679C214.024 60.4525 213.802 60.3466 213.523 60.2456C213.246 60.1479 212.95 60.0986 212.637 60.0986C211.945 60.0986 211.441 60.3337 211.121 60.802C210.802 61.2733 210.642 61.91 210.642 62.715V62.715ZM216.091 66.5851C215.715 66.6989 215.241 66.8038 214.671 66.8972C214.099 66.9923 213.5 67.0393 212.872 67.0393C212.223 67.0393 211.642 66.941 211.129 66.74C210.616 66.5424 210.178 66.2586 209.817 65.8876C209.456 65.5166 209.179 65.0661 208.985 64.5412C208.792 64.0137 208.695 63.4205 208.695 62.7621C208.695 62.1126 208.776 61.5252 208.939 60.9977C209.1 60.4722 209.338 60.02 209.652 59.6428C209.968 59.2676 210.349 58.9762 210.799 58.7733C211.25 58.569 211.767 58.4691 212.355 58.4691C212.752 58.4691 213.103 58.5151 213.407 58.6075C213.709 58.7032 213.971 58.8094 214.191 58.9222V54.9907L216.091 54.6763V66.5851V66.5851Z" fill="#22425A"/>
<path d="M220.113 66.8359H218.212V58.6419H220.113V66.8359ZM220.316 56.2451C220.316 56.5996 220.201 56.8811 219.971 57.0887C219.741 57.2975 219.469 57.4034 219.154 57.4034C218.83 57.4034 218.552 57.2975 218.322 57.0887C218.092 56.8811 217.976 56.5996 217.976 56.2451C217.976 55.8791 218.092 55.5904 218.322 55.3815C218.552 55.174 218.83 55.0681 219.154 55.0681C219.469 55.0681 219.741 55.174 219.971 55.3815C220.201 55.5904 220.316 55.8791 220.316 56.2451Z" fill="#22425A"/>
<path d="M222.216 58.9067C222.583 58.8045 223.058 58.7035 223.645 58.6078C224.233 58.5154 224.88 58.4694 225.593 58.4694C226.263 58.4694 226.823 58.5598 227.273 58.743C227.722 58.9252 228.081 59.1823 228.348 59.5099C228.616 59.8397 228.804 60.2363 228.913 60.7024C229.025 61.1657 229.079 61.6748 229.079 62.2289V66.835H227.179V62.5276C227.179 62.0872 227.15 61.7136 227.093 61.4074C227.034 61.098 226.941 60.8484 226.81 60.6553C226.679 60.4619 226.5 60.3209 226.276 60.2301C226.051 60.1433 225.775 60.0995 225.451 60.0995C225.21 60.0995 224.96 60.115 224.698 60.1456C224.436 60.1765 224.242 60.2031 224.117 60.2229V66.835H222.216V58.9067V58.9067Z" fill="#22425A"/>
<path d="M233.978 65.5049C234.566 65.5049 235.01 65.474 235.315 65.4092V63.3114C235.209 63.2795 235.058 63.2489 234.858 63.2157C234.66 63.1848 234.439 63.1693 234.199 63.1693C233.989 63.1693 233.778 63.1848 233.564 63.2157C233.348 63.2489 233.154 63.3051 232.981 63.3874C232.809 63.4729 232.671 63.5889 232.566 63.7412C232.461 63.8925 232.408 64.0829 232.408 64.3115C232.408 64.7627 232.55 65.0715 232.832 65.2441C233.116 65.4168 233.497 65.5049 233.978 65.5049V65.5049ZM233.822 58.4386C234.449 58.4386 234.979 58.5155 235.408 58.6727C235.837 58.8299 236.179 59.049 236.437 59.3292C236.694 59.6123 236.877 59.956 236.987 60.3575C237.096 60.7587 237.152 61.2014 237.152 61.6802V66.6477C236.857 66.7092 236.415 66.7872 235.824 66.875C235.233 66.9651 234.566 67.0085 233.822 67.0085C233.33 67.0085 232.879 66.9615 232.471 66.8667C232.064 66.7733 231.715 66.6221 231.427 66.4129C231.139 66.2047 230.913 65.9321 230.751 65.597C230.59 65.2655 230.508 64.8501 230.508 64.3611C230.508 63.8899 230.601 63.4932 230.783 63.1693C230.966 62.8444 231.214 62.582 231.529 62.3787C231.843 62.1742 232.207 62.0288 232.621 61.941C233.033 61.8509 233.466 61.8068 233.917 61.8068C234.126 61.8068 234.345 61.8197 234.576 61.8453C234.806 61.871 235.053 61.9154 235.315 61.9795V61.6657C235.315 61.4457 235.286 61.2382 235.236 61.0389C235.182 60.8416 235.091 60.6663 234.96 60.5141C234.829 60.3621 234.656 60.2441 234.442 60.1612C234.228 60.0757 233.958 60.0352 233.634 60.0352C233.194 60.0352 232.79 60.0661 232.424 60.1303C232.057 60.1918 231.759 60.2645 231.529 60.349L231.293 58.8148C231.534 58.7293 231.886 58.6481 232.346 58.5626C232.807 58.4797 233.299 58.4386 233.822 58.4386V58.4386Z" fill="#22425A"/>
<path d="M65.4457 4.64566L66.8345 4.57327C66.9734 4.56588 67.107 4.62663 67.1915 4.73547L68.0396 5.82331C68.2529 6.09725 68.6919 6.0106 68.7824 5.67696L69.1419 4.35085C69.1778 4.2185 69.2774 4.11178 69.4085 4.06581L70.7188 3.60616C71.0489 3.49045 71.1011 3.05168 70.8074 2.86359L69.6406 2.11679C69.5239 2.04203 69.4519 1.9155 69.4481 1.77839L69.4101 0.406316C69.4008 0.0607868 68.9939 -0.123867 68.7219 0.0938056L67.6415 0.958157C67.5334 1.04454 67.3894 1.07307 67.2558 1.03424L65.9219 0.645917C65.5862 0.547911 65.2824 0.872831 65.4082 1.19538L65.9072 2.47632C65.957 2.60444 65.9399 2.74841 65.8612 2.86174L65.075 3.9937C64.8769 4.27873 65.0958 4.66415 65.4457 4.64566V4.64566Z" fill="#CEBAA2"/>
<path d="M71.184 72.0234C71.2424 72.2378 71.3208 72.3967 71.4095 72.519C69.0329 71.5541 66.5987 70.7175 64.1111 70.0637L63.1723 69.8042L62.2233 69.5816C61.6725 69.455 61.1224 69.3251 60.5686 69.2093C60.651 69.1333 60.7331 69.057 60.8132 68.9765C61.3277 68.4611 60.9128 66.7573 60.6718 65.7575C60.5874 65.4083 60.417 64.9058 60.2591 64.3181C60.2657 64.3148 60.2726 64.3128 60.2792 64.3105C60.3092 64.2405 60.3399 64.1589 60.3712 64.0793C60.9358 64.1665 61.5008 64.2576 62.0648 64.3487C62.7932 64.4723 63.5158 64.6282 64.2419 64.7657C64.3691 64.7903 65.2028 64.9544 65.33 64.9801C65.4572 65.0054 66.2852 65.1978 66.4125 65.2238C66.8482 65.3238 68.0622 65.6089 68.496 65.72C68.972 65.8427 70.2179 66.1762 70.6913 66.311C71.2394 66.4597 71.7833 66.6251 72.3262 66.7925C72.3733 66.9079 72.4158 67.02 72.4481 67.1266C72.546 69.5513 71.6125 71.2312 71.184 72.0234V72.0234ZM37.5233 69.0791C37.8232 68.4006 37.9092 67.4617 37.521 66.9424C36.3027 66.7602 35.3409 66.9112 34.9684 66.7379C34.9189 66.7149 34.8448 66.6708 34.7528 66.609C34.8761 66.4169 35.0251 66.1081 35.1866 65.5724C35.24 65.3941 35.3999 64.9863 35.6286 64.4276C42.5945 63.1694 50.2974 62.85 56.7879 63.6196C56.7691 64.1895 56.7355 64.7446 56.6831 65.2711C56.3736 66.5685 56.0255 67.5341 55.7249 68.4042C48.8005 67.5281 41.393 68.3243 37.5233 69.0791V69.0791ZM38.2629 44.5691C37.7049 44.626 37.1478 44.6908 36.5928 44.7707C35.5271 44.9095 34.4575 45.0177 33.3967 45.1801L32.6241 45.3094C31.2661 44.9825 30.0864 44.8526 29.236 44.8065C29.4881 43.573 29.6579 42.3068 29.764 41.2258C29.8978 41.2485 30.0386 41.2633 30.1896 41.2633C30.4658 41.2633 30.8353 41.1121 31.246 40.8306C31.5054 40.9976 31.7737 41.2022 31.955 41.4251C32.5674 42.1799 33.0619 42.6433 33.9218 42.9932C35.5238 43.667 37.1554 44.2156 38.2629 44.5691V44.5691ZM55.0577 45.3876C57.1792 45.5415 59.3045 45.6428 61.4154 45.9155C62.0265 45.973 62.636 46.0398 63.2448 46.1121C60.1289 47.6085 58.0421 49.2212 57.0878 50.369C51.5216 49.9263 46.1491 49.9352 40.5815 50.4068C40.5765 50.0375 40.5353 49.6665 40.4394 49.3166C38.6839 47.7778 36.8307 46.76 35.0999 46.0848C35.6398 46.022 36.1807 45.9651 36.7229 45.9138C37.726 45.7856 38.732 45.6961 39.7393 45.6198C40.0215 46.0085 40.4612 46.363 41.1043 46.5212C41.5225 46.8711 41.9787 47.3273 42.0305 47.4302C42.4784 47.5295 42.9218 47.0662 42.3954 46.0967C42.7573 45.9339 42.9053 45.9257 43.6539 45.7481C44.6658 45.8869 46.8716 45.9872 47.218 45.2521L49.0527 45.2117L51.871 45.2735C52.934 45.3071 53.998 45.2906 55.0577 45.3876ZM84.0748 47.8959C84.3705 48.5816 84.1566 49.4129 83.9304 49.7382C83.9093 49.7671 83.8879 49.8082 83.8662 49.8487C83.0899 49.5793 82.3097 49.3189 81.5272 49.0673C81.5611 47.646 81.3314 46.025 80.7091 44.2507C80.3867 43.3306 79.9958 42.4127 79.5722 41.4755C79.9523 41.8231 80.2258 42.0796 80.3046 42.1602C80.6501 42.5186 81.4781 43.9729 81.8169 44.6654C82.1564 45.3587 83.7795 47.2092 84.0748 47.8959ZM61.7984 58.1473C62.5358 58.2565 63.2732 58.3735 64.0099 58.4945C64.7189 58.6146 65.4249 58.754 66.132 58.8898C67.4626 60.3122 70.4974 63.5532 71.8588 65.871C70.1408 65.282 68.4027 64.7499 66.6396 64.304L66.0957 64.1583L65.5508 64.0201L65.5297 64.0159L64.4914 63.7801C64.4802 63.7771 64.4153 63.762 64.4034 63.7597C63.7175 63.6067 63.0325 63.4463 62.3403 63.318C62.3001 63.3105 62.191 63.2904 62.1505 63.2832C61.8627 63.2309 61.2292 63.1187 60.7272 63.0299C61.1267 61.7138 61.5469 59.8919 61.7984 58.1473V58.1473ZM32.9399 58.7086C32.7187 60.0557 32.2879 61.5675 32.2645 61.9904C32.2487 62.2637 32.2062 62.7172 32.1037 63.2832C31.7576 62.3413 31.4658 60.692 31.2496 59.0349C31.8136 58.9257 32.3759 58.8145 32.9399 58.7086V58.7086ZM31.4246 52.77C31.5937 52.7411 31.7635 52.7134 31.9332 52.6842C32.7141 52.8687 33.3153 52.9933 33.5899 53.0433C33.5098 53.2531 32.9907 55.814 33.0648 57.2291C33.0708 57.3468 33.0691 57.4757 33.0632 57.6109C32.6406 57.6967 32.2197 57.7885 31.7988 57.8815C31.7012 57.9042 31.2697 57.9983 31.127 58.0302C30.9675 56.6266 30.8643 55.3259 30.8323 54.585C30.8323 54.585 30.9467 53.3761 30.9348 52.8604C31.0977 52.8305 31.2608 52.7993 31.4246 52.77V52.77ZM64.5972 57.4257C64.6375 57.4708 64.6711 57.5063 64.7077 57.5468C64.5389 57.5145 64.3705 57.4774 64.2007 57.4488C64.1737 57.4428 64.0079 57.4145 63.9815 57.4093C63.7481 57.3675 62.4893 57.1518 61.9323 57.0551C61.9791 56.5828 62.013 56.1244 62.0236 55.6976C62.5253 55.4812 63.3173 55.2789 64.2709 55.076C64.2561 55.1178 64.2409 55.1605 64.2291 55.202C64.0577 55.7692 64.2037 56.9818 64.5972 57.4257V57.4257ZM43.9818 51.3503C48.3183 51.1665 52.159 51.2016 56.4856 51.5068C56.3159 52.3553 56.3805 53.6089 56.3805 53.6089C56.3258 53.8602 56.4138 54.9119 56.5239 56.3602C50.1573 55.7952 45.1223 55.8939 38.8015 56.6723C39.4275 55.0454 39.8843 53.7089 39.8926 53.2307C40.0781 53.038 40.3385 52.3911 40.4816 51.595C41.6475 51.5002 42.815 51.4286 43.9818 51.3503ZM36.1741 63.1098C36.8073 61.5888 37.5935 59.7225 38.3275 57.8815C44.6526 57.1751 50.3471 57.017 56.6106 57.5468C56.7144 59.0352 56.8103 60.7713 56.8073 62.4524C48.3519 61.5063 40.3804 62.3321 36.1741 63.1098V63.1098ZM78.0141 55.3657C78.6143 55.5417 79.2096 55.7304 79.8092 55.9064C80.7344 56.1761 81.6449 56.4908 82.5582 56.7976C86.1982 58.0167 89.7762 59.4459 93.2099 61.1906C89.9045 59.2042 86.3561 57.6451 82.7613 56.2385C81.5489 55.7788 80.3267 55.3424 79.0966 54.9283C79.1219 54.9162 79.149 54.9043 79.1744 54.8918C80.7091 54.1381 81.6544 51.9242 81.5578 49.8615C82.1317 50.0329 82.7026 50.2127 83.2781 50.3808C83.3747 50.4084 83.4696 50.4413 83.5655 50.4702C83.3876 50.8359 83.1654 51.2276 82.8625 51.4299C82.8625 51.4299 82.6897 51.5621 82.5361 51.6426C82.4758 51.6745 82.4392 51.739 82.4406 51.8074C82.4475 52.035 82.5909 52.3717 83.1548 52.3823C83.8368 52.3941 84.4292 51.2993 84.9035 51.3082C85.2476 51.3141 85.9827 52.2718 86.3113 52.7828C86.6491 53.3097 87.2227 53.2432 87.5909 52.9792C87.6822 52.9134 87.7 52.7851 87.6275 52.6986C87.4181 52.4494 86.988 51.9212 86.7332 51.5039C86.8407 51.5404 86.9484 51.5779 87.0562 51.6144C87.3232 51.8607 87.6528 52.1524 87.934 52.3165C88.4597 52.6223 88.7037 52.521 89.0606 52.3224C92.1571 53.4544 95.1982 54.7448 98.1384 56.2543C95.3897 54.612 92.4884 53.2409 89.5287 52.0077C89.558 51.9465 89.5676 51.8837 89.5475 51.8268C89.5475 51.8268 89.261 51.275 89.145 50.9359C89.1167 50.8544 89.0712 50.7823 89.0089 50.7225C88.8289 50.5485 88.4195 50.1785 87.8697 49.8329C87.3687 49.5175 86.7391 47.9008 86.5348 47.0181C86.3314 46.1361 85.1121 42.3223 83.7831 41.0808C82.961 40.3126 81.8522 38.6456 81.0957 37.4347C81.2836 37.1801 81.3756 37.0019 81.3973 36.9555C81.4787 36.7839 81.2628 36.5287 80.6689 36.087C80.1039 30.5193 77.1169 30.3611 75.8551 30.5052C75.211 30.3542 74.6612 30.3565 74.5274 30.3118C74.172 30.1931 73.9591 29.8856 73.9261 29.3657C74.2709 28.6994 73.8879 28.3603 73.4812 28.2031C73.6417 27.2836 73.7584 26.495 75.2199 25.6972C76.4781 26.5835 78.1707 26.7275 79.0705 26.6358C78.4766 27.0508 77.9314 27.2724 77.5886 28.0814C76.9491 29.5909 79.8168 30.8686 80.8304 30.3625C81.4787 30.0395 81.214 28.1104 81.0697 26.8531C81.8983 26.835 82.0598 30.0694 84.7697 29.1013C83.4466 28.3439 85.2117 25.9007 82.0598 25.9734C82.5302 26.0247 84.4987 25.0904 84.0359 23.8092C83.6394 22.7137 82.312 22.1816 81.5318 22.3437C80.5759 22.542 80.5027 23.9519 80.2417 25.2539C77.9291 24.8734 76.9283 22.8288 76.8018 20.9244C76.7256 19.7691 77.1258 11.7076 69.1655 11.3488C66.3996 11.2242 63.0922 12.7563 62.072 14.3217C60.0811 14.5276 59.7169 15.9664 59.8784 17.0589C60.0099 17.9475 60.004 18.4819 59.497 18.894C59.497 18.894 59.7063 19.2103 60.71 19.3856C61.0166 20.2719 61.778 21.6258 61.5806 22.2125C61.2935 23.0643 60.7242 23.2859 60.1055 23.6793C60.2621 24.2258 60.657 24.6195 61.1685 24.7017C61.2889 24.878 61.0832 25.2927 60.8491 25.6965C61.0588 26.2263 61.5674 26.2421 62.1871 26.1323C62.019 26.2165 61.3189 26.9784 61.7009 27.1501C61.897 27.2376 62.2612 27.3024 62.3024 27.5007C62.3433 27.7 62.1544 28.5948 62.9323 29.0894C63.1476 29.2259 63.4498 29.2963 63.7795 29.3246C63.7772 29.3305 63.7752 29.3374 63.7729 29.344C63.8052 29.341 63.8378 29.3364 63.8708 29.3344C64.4469 29.3686 65.0917 29.2716 65.5475 29.1328C66.0861 29.0776 66.5394 29.0805 66.8156 29.2611C66.4781 29.5222 66.3759 30.0043 66.6046 30.3865C66.7497 30.6275 66.954 30.8728 67.1871 31.1363C66.2157 31.2451 65.0287 31.9578 63.4947 33.8928C62.9323 34.0862 62.461 33.6705 62.5681 34.5367C62.6202 34.9623 62.7085 35.3744 62.8222 35.768C61.8133 36.9687 60.1985 38.786 59.0115 39.6075C56.9412 38.709 53.9509 37.9017 53.1782 37.4778C52.936 37.3443 53.2105 37.1459 52.7985 36.3922C52.3871 35.6381 52.307 34.3647 52.1126 33.9214C51.6458 33.6682 51.1768 35.1511 51.3122 35.9242C51.4477 36.697 48.5075 34.8136 48.1222 34.6778C47.7372 34.5413 47.343 34.3973 47.1604 34.7117C47.343 35.2204 47.9772 35.8778 47.9772 35.8778C47.9772 35.8778 46.0631 35.0412 45.711 35.8203C45.8897 36.1584 46.1408 36.2212 46.1408 36.2212C46.1408 36.2212 45.3316 35.9571 45.0917 36.5353C45.0917 36.8891 46.6211 37.3867 47.5852 37.8846C46.2621 37.7747 46.2592 38.5173 46.2592 38.5173C46.8426 38.689 47.3977 38.7261 48.2629 39.0343C48.8829 39.2553 49.6773 39.8203 51.0584 39.7733C51.5225 39.7568 51.9824 39.818 52.4049 40.009C54.4842 40.9493 57.5177 43.2796 59.6734 43.2796C61.1662 43.2796 63.6651 41.2074 65.2456 39.7427C65.4477 40.0051 65.6253 40.2126 65.7272 40.2738C65.8191 40.329 66.0008 40.2097 66.22 40.0028C66.5753 40.6724 67.0068 41.3722 67.5312 42.0796C67.7959 42.438 67.4198 42.8491 67.6733 43.4812C67.8275 43.8663 68.6743 43.8788 68.7353 44.0117C67.4564 44.3915 66.274 44.8115 65.185 45.2525L64.7423 45.1798C63.6802 45.016 62.6113 44.9081 61.5453 44.77C59.4169 44.4632 57.2682 44.3662 55.126 44.1962C54.055 44.0945 52.9795 44.1051 51.9052 44.0669L49.4558 44.0028V43.9834L48.6825 43.9827V44.0034L47.1162 44.0445C47.283 43.9482 47.3354 43.6624 47.0954 43.6318C46.5473 43.5624 46.0743 43.3954 46.0743 43.3954C46.1567 43.3253 46.185 43.2007 46.1283 43.1685C46.0228 43.1089 45.7229 42.9281 45.4124 42.8044C45.064 42.6646 44.8359 42.6735 44.4446 42.6735C44.0108 42.6735 43.1014 42.808 42.277 42.8886C41.6923 42.8014 41.5255 42.5758 41.4049 42.4769C38.7326 40.2761 36.1148 39.2731 35.1546 38.6239C35.0946 38.5831 35.0425 38.5367 34.9951 38.4815C34.5039 37.9076 34.237 37.2144 34.237 37.2144C34.237 37.2144 35.6639 35.6585 34.1335 34.9577C33.4284 33.4153 33.4066 32.7743 32.6011 32.0117C32.0654 31.5049 31.6191 31.2501 31.2526 31.1261C31.3917 30.9038 31.6982 30.3888 31.8271 29.9514C31.8555 29.8573 31.8143 29.7544 31.7305 29.7031C31.3363 29.4614 30.3379 29.0598 29.5257 28.7717C29.6252 28.2538 29.8111 27.7999 29.854 27.7523C30.5347 26.9807 32.7784 27.3313 34.1816 27.1149C35.1718 26.963 35.5235 25.8396 35.1091 24.9053C35.0692 24.8158 35.1447 24.7165 35.2354 24.5912C35.6708 24.239 35.6243 23.7158 35.2855 23.6026C35.4177 23.4869 35.8082 22.7331 35.5732 22.5013C35.2373 22.3862 34.972 21.734 35.2017 21.5614C35.4305 21.3894 35.8201 20.6593 35.5973 20.2407C34.5771 19.9976 33.9123 19.2639 33.9047 18.89C33.8974 18.5164 33.8928 16.9819 33.8928 16.9819C33.8928 16.9819 34.4515 16.8612 34.6579 16.3551C33.5464 15.8375 33.2224 11.6464 27.1449 11.6464C19.3731 11.6464 19.7904 15.7329 19.7904 15.7329C14.9354 17.2381 17.2998 22.695 17.7448 24.1512C18.0276 25.0733 18.0823 27.1149 16.9886 27.1149C17.4478 28.2202 19.1338 27.9252 19.8382 27.6276C19.8167 27.968 19.4868 28.3209 19.1374 28.4879C19.1374 28.4879 20.4186 29.2851 22.394 27.5671C22.5272 27.4513 22.7082 27.5724 22.8084 27.7141C23.0589 28.0709 23.1607 28.5724 23.1571 29.1394C22.4023 29.2663 21.7658 29.5222 22.0506 30.2325C22.133 30.4371 22.1765 30.6157 22.1936 30.7745C21.6191 30.8498 21.0393 31.0356 20.5554 31.4201C18.9564 32.6885 17.3192 33.9267 17.0776 34.1562C15.0214 34.4266 15.9236 36.3419 15.9236 36.3419C13.7089 39.6105 12.7724 42.809 12.7724 43.4556C13.044 44.2251 14.2729 45.2692 16.2229 45.8175C16.1339 46.1378 16.2565 46.584 16.8571 46.9718C16.7971 47.2474 16.7486 47.5072 16.7282 47.7301C16.6867 48.2057 16.6969 48.6325 16.7562 49.0226C15.0284 49.5757 13.315 50.1703 11.6171 50.8037C7.62246 52.3494 3.6746 54.0588 0 56.2543C3.80249 54.3009 7.77474 52.7118 11.8175 51.3615C12.8295 51.024 13.8345 50.6725 14.8593 50.3791C15.5571 50.1762 16.2499 49.9539 16.9467 49.751C17.2556 50.5906 17.8608 51.2441 18.7824 51.8344C19.7779 52.4724 21.6781 53.2337 22.9775 53.703C20.4074 54.4396 17.8733 55.2947 15.3771 56.2402C11.7823 57.6461 8.2339 59.2055 4.92815 61.1906C8.26093 59.4966 11.7292 58.1006 15.2588 56.9035C15.3883 56.8601 15.5165 56.8164 15.6461 56.7729C16.5624 56.4671 17.4748 56.1514 18.403 55.882C19.3289 55.6094 20.2459 55.3059 21.1817 55.0691C21.3416 55.0247 23.818 54.368 23.9795 54.3275C24.0108 54.3193 24.171 54.2818 24.3859 54.2321C24.5587 54.4932 24.8893 54.9612 24.9301 55.0661C24.8392 55.6094 24.5273 57.2093 25.622 59.465C23.4297 60.1152 21.2661 60.8548 19.1367 61.6763C15.9431 62.9434 12.7935 64.3516 9.85629 66.1268C12.8532 64.6229 15.9641 63.3769 19.1275 62.3031C19.2435 62.2637 19.3589 62.2242 19.4746 62.1851C20.296 61.9092 21.1158 61.63 21.9461 61.3853C22.7754 61.1376 23.5991 60.8719 24.4374 60.6549C24.6318 60.5996 25.3949 60.3967 26.0367 60.2263C26.2166 60.5302 26.4151 60.84 26.6491 61.1623C28.3588 63.5157 28.5316 64.6627 28.5197 65.1472C26.6191 65.7276 24.7419 66.3834 22.8967 67.1125C20.1032 68.2401 17.3528 69.4974 14.7851 71.0638C17.4448 69.7506 20.1988 68.6525 22.9959 67.7021C23.0984 67.6669 23.201 67.6317 23.3035 67.5975C24.0299 67.3519 24.7561 67.1095 25.4888 66.8878C26.2219 66.6649 26.9527 66.438 27.6924 66.2396C27.8427 66.1969 28.0731 66.1341 28.3282 66.0663C28.1937 66.5609 28.0434 67.1983 28.1321 67.5969C28.2728 68.2207 28.5682 68.8489 29.6025 69.0669C29.8883 69.1267 30.1569 69.1932 30.4157 69.2645C30.242 70.0512 30.1015 70.7773 30.0109 71.2913C28.881 71.6804 27.7612 72.099 26.6564 72.5489C24.263 73.5375 21.9131 74.6435 19.7136 76C22.0381 74.8776 24.4327 73.9292 26.865 73.1017C27.8703 72.7541 28.8846 72.4345 29.9031 72.1323C29.8764 73.006 30.2607 73.5937 31.8149 73.6868C33.6914 73.8009 34.6803 72.4309 34.6879 72.1204C34.6932 71.8951 34.5995 71.4048 34.5247 70.9973C34.7238 71.0444 34.9054 71.0736 35.0432 71.0674C35.3333 71.0542 35.7647 70.8437 36.1824 70.5632C42.5397 69.3652 48.8955 68.8206 55.3564 69.5401C55.3241 69.65 55.2934 69.7588 55.2651 69.8683C53.9406 72.08 53.4769 72.4877 53.1941 72.887C53.2761 73.7322 54.5544 73.9795 56.0235 73.6927C57.3331 73.4369 58.8872 73.2359 59.4595 70.8951C59.5336 70.5922 59.6375 70.3511 59.7555 70.1436C59.8768 70.1633 59.9981 70.184 60.119 70.2028C60.7496 70.3103 61.3726 70.4564 62.0025 70.5751L62.9442 70.7602L63.879 70.9819C66.3759 71.5554 68.8447 72.2645 71.2724 73.1034C73.7046 73.9308 76.1003 74.8786 78.4248 76C76.4481 74.7793 74.3471 73.769 72.2045 72.8571C72.3934 72.8317 72.5305 72.7623 72.5305 72.7623C73.0091 72.9389 74.535 72.884 75.3719 71.9316C76.2088 70.9796 76.7025 69.1192 76.4543 68.2306C76.4481 68.2066 76.4481 68.1878 76.4421 68.1655C78.792 69.0074 81.1069 69.9558 83.3533 71.0638C81.1452 69.7161 78.8025 68.5989 76.4138 67.5939C76.4863 67.1819 76.7427 66.9707 76.6531 66.7178C76.5275 66.3597 75.8221 64.9949 75.5564 64.6045C74.8461 63.562 74.8148 62.3308 74.5603 60.9012C75.155 61.0735 75.7473 61.2547 76.3403 61.433C77.166 61.6786 77.9798 61.9568 78.796 62.2321C82.0338 63.3216 85.2179 64.5904 88.2811 66.1268C85.3455 64.35 82.196 62.9428 79.0023 61.6747C77.4775 61.086 75.9348 60.5381 74.3777 60.0346C74.0995 58.9244 73.6038 57.7043 72.5289 56.3684C72.7906 56.4036 75.6672 56.1714 78.0141 55.3657V55.3657Z" fill="#CEBAA2"/>
<path d="M42.241 22.9097L44.339 24.2896C44.5483 24.4274 44.6769 24.6596 44.6822 24.9095L44.7323 27.4161C44.7451 28.0472 45.4772 28.3899 45.9716 27.9959L47.9348 26.4318C48.131 26.2753 48.392 26.2253 48.632 26.2983L51.0372 27.0251C51.6424 27.2079 52.1962 26.6189 51.9733 26.028L51.0883 23.6822C51 23.447 51.0329 23.1843 51.1763 22.9784L52.6125 20.921C52.9744 20.4031 52.5835 19.6963 51.9513 19.7246L49.4412 19.8397C49.1907 19.8509 48.9497 19.7384 48.7988 19.5382L47.2812 17.5406C46.8992 17.0368 46.1048 17.1891 45.9367 17.7978L45.2702 20.215C45.2036 20.456 45.0217 20.6501 44.7847 20.7323L42.4107 21.5544C41.8131 21.7613 41.7129 22.5621 42.241 22.9097V22.9097Z" fill="#CEBAA2"/>
<path d="M52.0388 9.28122L53.8863 9.18421C54.0709 9.17369 54.2483 9.2559 54.361 9.40224L55.489 10.8647C55.7724 11.2327 56.3565 11.1163 56.4772 10.6677L56.9548 8.88494C57.0029 8.7067 57.1351 8.56331 57.3095 8.50149L59.0521 7.88355C59.4912 7.72767 59.5608 7.13735 59.1695 6.88511L57.6183 5.88076C57.4627 5.77979 57.3678 5.60978 57.3625 5.42528L57.3118 3.58101C57.2989 3.11665 56.758 2.86835 56.3964 3.16072L54.9593 4.3226C54.8159 4.43902 54.6244 4.47716 54.4464 4.42487L52.6724 3.90231C52.2257 3.77109 51.8219 4.20749 51.9894 4.64192L52.6526 6.36419C52.7192 6.53652 52.6961 6.73088 52.5916 6.88216L51.5457 8.40447C51.2823 8.78726 51.5734 9.30589 52.0388 9.28122Z" fill="#CEBAA2"/>
<path d="M105.482 48.5345C105.482 48.1773 105.54 47.8386 105.658 47.5212C105.774 47.2042 105.941 46.9267 106.162 46.6912C106.383 46.4554 106.65 46.2693 106.965 46.1308C107.281 45.9923 107.64 45.924 108.042 45.924C108.307 45.924 108.551 45.9466 108.77 45.9937C108.991 46.041 109.206 46.1081 109.413 46.1966L109.121 47.3183C108.988 47.2683 108.843 47.224 108.686 47.1868C108.528 47.1483 108.352 47.1296 108.156 47.1296C107.74 47.1296 107.429 47.2585 107.226 47.517C107.021 47.7741 106.918 48.1145 106.918 48.5345C106.918 48.9804 107.014 49.3277 107.206 49.5717C107.398 49.8161 107.735 49.9391 108.213 49.9391C108.384 49.9391 108.567 49.9246 108.761 49.8917C108.956 49.8618 109.137 49.8105 109.3 49.7421L109.498 50.8908C109.334 50.9608 109.13 51.0207 108.883 51.071C108.638 51.1207 108.368 51.148 108.071 51.148C107.617 51.148 107.228 51.0796 106.9 50.9437C106.572 50.8092 106.302 50.6251 106.092 50.3919C105.88 50.1604 105.725 49.8848 105.629 49.5674C105.531 49.2501 105.482 48.9058 105.482 48.5345V48.5345Z" fill="#22425A"/>
<path d="M113.327 48.0343C113.321 47.9156 113.3 47.7985 113.265 47.6854C113.231 47.5729 113.176 47.4713 113.105 47.3842C113.032 47.2954 112.94 47.2243 112.83 47.1671C112.72 47.1112 112.582 47.0813 112.419 47.0813C112.261 47.0813 112.126 47.1099 112.014 47.1625C111.899 47.2158 111.806 47.2871 111.73 47.374C111.654 47.4628 111.597 47.5657 111.555 47.6815C111.513 47.7972 111.483 47.9156 111.465 48.0343H113.327V48.0343ZM110.018 48.5717C110.018 48.1317 110.087 47.7472 110.222 47.4171C110.358 47.0869 110.535 46.8126 110.756 46.5926C110.977 46.3713 111.23 46.2055 111.516 46.0924C111.805 45.9796 112.098 45.9224 112.4 45.9224C113.106 45.9224 113.663 46.1381 114.073 46.5686C114.483 46.9997 114.688 47.6328 114.688 48.4691C114.688 48.5503 114.685 48.6404 114.677 48.7374C114.672 48.8348 114.666 48.9219 114.659 48.9959H111.465C111.497 49.2863 111.631 49.5165 111.872 49.6849C112.111 49.8533 112.432 49.9394 112.836 49.9394C113.094 49.9394 113.347 49.9161 113.596 49.8691C113.845 49.8207 114.047 49.7619 114.205 49.6948L114.395 50.8353C114.318 50.8738 114.218 50.9109 114.092 50.9477C113.966 50.9852 113.825 51.0181 113.672 51.0467C113.517 51.075 113.353 51.0994 113.176 51.1181C112.999 51.1365 112.823 51.1467 112.647 51.1467C112.198 51.1467 111.81 51.0796 111.479 50.9477C111.148 50.8165 110.875 50.6353 110.657 50.4064C110.44 50.1762 110.279 49.9049 110.174 49.5905C110.072 49.2761 110.018 48.9361 110.018 48.5717V48.5717Z" fill="#22425A"/>
<path d="M116.984 48.1528C116.971 48.3724 116.959 48.6128 116.947 48.87C116.933 49.1285 116.923 49.3883 116.913 49.6501C116.904 49.9102 116.894 50.1602 116.885 50.3959C116.875 50.6314 116.867 50.8373 116.861 51.0149H115.49C115.503 50.6689 115.523 50.2789 115.552 49.8458C115.58 49.4116 115.612 48.97 115.647 48.5211C115.681 48.0712 115.72 47.6325 115.761 47.2053C115.801 46.7778 115.84 46.3946 115.878 46.0549H117.05C117.322 46.4936 117.572 46.9491 117.799 47.4194C118.027 47.8897 118.268 48.4083 118.52 48.9729C118.785 48.3698 119.044 47.814 119.297 47.3023C119.549 46.7909 119.777 46.3749 119.979 46.0549H121.17C121.215 46.3946 121.257 46.7778 121.298 47.2053C121.34 47.6325 121.377 48.0712 121.411 48.5211C121.446 48.97 121.476 49.4116 121.501 49.8458C121.526 50.2789 121.546 50.6689 121.557 51.0149H120.16C120.147 50.5229 120.129 50.0345 120.108 49.5514C120.085 49.0657 120.065 48.5971 120.046 48.1439L119.004 50.4301H118.027L116.984 48.1528V48.1528Z" fill="#22425A"/>
<path d="M125.66 48.0343C125.652 47.9156 125.633 47.7985 125.598 47.6854C125.563 47.5729 125.509 47.4713 125.437 47.3842C125.365 47.2954 125.273 47.2243 125.162 47.1671C125.052 47.1112 124.915 47.0813 124.751 47.0813C124.594 47.0813 124.459 47.1099 124.346 47.1625C124.231 47.2158 124.138 47.2871 124.061 47.374C123.986 47.4628 123.928 47.5657 123.888 47.6815C123.846 47.7972 123.816 47.9156 123.797 48.0343H125.66V48.0343ZM122.351 48.5717C122.351 48.1317 122.42 47.7472 122.554 47.4171C122.691 47.0869 122.868 46.8126 123.089 46.5926C123.309 46.3713 123.563 46.2055 123.849 46.0924C124.137 45.9796 124.431 45.9224 124.733 45.9224C125.439 45.9224 125.996 46.1381 126.406 46.5686C126.816 46.9997 127.02 47.6328 127.02 48.4691C127.02 48.5503 127.017 48.6404 127.01 48.7374C127.004 48.8348 126.998 48.9219 126.991 48.9959H123.797C123.829 49.2863 123.964 49.5165 124.203 49.6849C124.444 49.8533 124.764 49.9394 125.168 49.9394C125.426 49.9394 125.679 49.9161 125.929 49.8691C126.176 49.8207 126.38 49.7619 126.537 49.6948L126.728 50.8353C126.651 50.8738 126.55 50.9109 126.424 50.9477C126.298 50.9852 126.158 51.0181 126.005 51.0467C125.85 51.075 125.684 51.0994 125.508 51.1181C125.332 51.1365 125.155 51.1467 124.979 51.1467C124.531 51.1467 124.143 51.0796 123.81 50.9477C123.481 50.8165 123.208 50.6353 122.99 50.4064C122.772 50.1762 122.612 49.9049 122.507 49.5905C122.404 49.2761 122.351 48.9361 122.351 48.5717V48.5717Z" fill="#22425A"/>
<path d="M130.195 45.3763C129.993 45.3763 129.8 45.3464 129.614 45.2882C129.427 45.2267 129.26 45.1395 129.108 45.0224C128.958 44.9067 128.833 44.7653 128.734 44.5992C128.637 44.4321 128.58 44.242 128.559 44.0293L129.533 43.7731C129.584 44.0118 129.668 44.1818 129.784 44.2818C129.9 44.3838 130.038 44.4334 130.195 44.4334C130.358 44.4334 130.499 44.3877 130.615 44.2963C130.732 44.2049 130.815 44.0348 130.867 43.7833L131.831 44.0378C131.81 44.2509 131.752 44.4407 131.656 44.6081C131.557 44.7748 131.435 44.9136 131.286 45.028C131.139 45.1408 130.97 45.2267 130.781 45.2882C130.592 45.3464 130.397 45.3763 130.195 45.3763V45.3763ZM132.444 46.0554V51.0153H131.027C131.027 50.7009 131.03 50.3879 131.036 50.0764C131.043 49.7647 131.049 49.4776 131.056 49.2148C131.062 48.9504 131.069 48.7189 131.079 48.5216C131.089 48.3233 131.093 48.1759 131.093 48.0832C130.911 48.3404 130.728 48.6002 130.545 48.8649C130.363 49.129 130.188 49.3878 130.021 49.6433C129.853 49.8975 129.695 50.1406 129.548 50.3737C129.4 50.6066 129.27 50.8197 129.155 51.0153H127.918V46.0554H129.326C129.326 46.3698 129.324 46.6697 129.321 46.9558C129.318 47.2413 129.313 47.5014 129.307 47.7329C129.3 47.9661 129.294 48.169 129.289 48.342C129.281 48.5143 129.278 48.6488 129.278 48.7416C129.657 48.1887 130.005 47.6928 130.323 47.2528C130.642 46.8128 130.951 46.4142 131.253 46.0554H132.444V46.0554Z" fill="#22425A"/>
<path d="M137.86 51.0145H136.452V49.0529H134.986V51.0145H133.578V46.0549H134.986V47.9025H136.452V46.0549H137.86V51.0145Z" fill="#22425A"/>
<path d="M145.458 51.0145H144.05V46.0549H145.458V51.0145ZM141.101 50.0345C141.359 50.0345 141.562 49.9842 141.711 49.8885C141.859 49.7898 141.933 49.6313 141.933 49.4113C141.933 49.2985 141.907 49.2025 141.857 49.1239C141.806 49.0453 141.737 48.9825 141.649 48.9355C141.561 48.8881 141.458 48.8552 141.342 48.8368C141.226 48.818 141.101 48.8082 140.968 48.8082C140.875 48.8082 140.77 48.8141 140.657 48.8269C140.544 48.8394 140.458 48.8526 140.402 48.8654V49.9957C140.476 50.0085 140.578 50.0171 140.704 50.0243C140.83 50.0316 140.962 50.0345 141.101 50.0345V50.0345ZM140.402 47.818C140.489 47.7936 140.604 47.7739 140.746 47.7565C140.888 47.741 141.051 47.7338 141.233 47.7338C141.522 47.7338 141.795 47.7683 142.051 47.8377C142.305 47.9068 142.528 48.0123 142.717 48.1524C142.906 48.2938 143.056 48.4737 143.166 48.6914C143.275 48.9068 143.331 49.1611 143.331 49.4498C143.331 49.7382 143.281 49.9888 143.179 50.1986C143.079 50.4101 142.934 50.5818 142.745 50.7186C142.556 50.8531 142.331 50.953 142.069 51.0188C141.807 51.0859 141.516 51.1188 141.196 51.1188C140.78 51.1188 140.398 51.0974 140.051 51.056C139.705 51.0159 139.352 50.9514 138.993 50.8643V46.0549H140.402V47.818Z" fill="#22425A"/>
<path d="M149.663 48.0343C149.657 47.9156 149.636 47.7985 149.601 47.6854C149.567 47.5729 149.514 47.4713 149.441 47.3842C149.368 47.2954 149.276 47.2243 149.166 47.1671C149.057 47.1112 148.919 47.0813 148.756 47.0813C148.599 47.0813 148.462 47.1099 148.349 47.1625C148.235 47.2158 148.142 47.2871 148.066 47.374C147.99 47.4628 147.932 47.5657 147.891 47.6815C147.85 47.7972 147.819 47.9156 147.801 48.0343H149.663V48.0343ZM146.354 48.5717C146.354 48.1317 146.423 47.7472 146.559 47.4171C146.694 47.0869 146.871 46.8126 147.092 46.5926C147.312 46.3713 147.566 46.2055 147.853 46.0924C148.14 45.9796 148.434 45.9224 148.738 45.9224C149.442 45.9224 149.999 46.1381 150.409 46.5686C150.819 46.9997 151.023 47.6328 151.023 48.4691C151.023 48.5503 151.02 48.6404 151.015 48.7374C151.007 48.8348 151.002 48.9219 150.996 48.9959H147.801C147.832 49.2863 147.968 49.5165 148.207 49.6849C148.447 49.8533 148.768 49.9394 149.171 49.9394C149.429 49.9394 149.683 49.9161 149.932 49.8691C150.181 49.8207 150.385 49.7619 150.542 49.6948L150.731 50.8353C150.655 50.8738 150.555 50.9109 150.429 50.9477C150.301 50.9852 150.163 51.0181 150.008 51.0467C149.853 51.075 149.688 51.0994 149.512 51.1181C149.335 51.1365 149.159 51.1467 148.982 51.1467C148.534 51.1467 148.146 51.0796 147.815 50.9477C147.484 50.8165 147.211 50.6353 146.993 50.4064C146.775 50.1762 146.615 49.9049 146.51 49.5905C146.407 49.2761 146.354 48.9361 146.354 48.5717V48.5717Z" fill="#22425A"/>
<path d="M157.185 48.5722C157.185 48.1378 157.088 47.7918 156.892 47.5307C156.697 47.269 156.408 47.1391 156.022 47.1391C155.898 47.1391 155.781 47.1437 155.673 47.1532C155.565 47.1634 155.478 47.1736 155.409 47.1861V49.7226C155.497 49.7795 155.611 49.8252 155.753 49.8644C155.895 49.9012 156.04 49.9196 156.184 49.9196C156.851 49.9196 157.185 49.471 157.185 48.5722V48.5722ZM158.622 48.5338C158.622 48.9179 158.574 49.2668 158.48 49.5812C158.386 49.8956 158.246 50.1656 158.064 50.3912C157.882 50.6184 157.655 50.7944 157.384 50.9203C157.114 51.0443 156.8 51.1085 156.448 51.1085C156.253 51.1085 156.07 51.09 155.9 51.0516C155.73 51.0141 155.565 50.9598 155.409 50.8914V52.7594H154V46.2245C154.126 46.1876 154.272 46.1502 154.435 46.116C154.598 46.0817 154.771 46.0515 154.95 46.0258C155.13 46.0015 155.312 45.9801 155.498 45.9643C155.684 45.9502 155.862 45.9417 156.032 45.9417C156.442 45.9417 156.807 46.0028 157.128 46.1245C157.45 46.2488 157.721 46.4205 157.942 46.6444C158.162 46.8677 158.33 47.1391 158.447 47.459C158.563 47.7807 158.622 48.1378 158.622 48.5338Z" fill="#22425A"/>
<path d="M162.592 48.0343C162.585 47.9156 162.564 47.7985 162.53 47.6854C162.495 47.5729 162.441 47.4713 162.369 47.3842C162.296 47.2954 162.205 47.2243 162.094 47.1671C161.984 47.1112 161.846 47.0813 161.683 47.0813C161.526 47.0813 161.391 47.1099 161.278 47.1625C161.163 47.2158 161.07 47.2871 160.993 47.374C160.918 47.4628 160.861 47.5657 160.82 47.6815C160.778 47.7972 160.748 47.9156 160.729 48.0343H162.592V48.0343ZM159.283 48.5717C159.283 48.1317 159.352 47.7472 159.486 47.4171C159.622 47.0869 159.8 46.8126 160.02 46.5926C160.241 46.3713 160.495 46.2055 160.781 46.0924C161.067 45.9796 161.362 45.9224 161.665 45.9224C162.37 45.9224 162.928 46.1381 163.338 46.5686C163.747 46.9997 163.952 47.6328 163.952 48.4691C163.952 48.5503 163.949 48.6404 163.942 48.7374C163.936 48.8348 163.931 48.9219 163.923 48.9959H160.729C160.761 49.2863 160.896 49.5165 161.135 49.6849C161.375 49.8533 161.696 49.9394 162.1 49.9394C162.358 49.9394 162.611 49.9161 162.861 49.8691C163.108 49.8207 163.312 49.7619 163.469 49.6948L163.66 50.8353C163.582 50.8738 163.482 50.9109 163.356 50.9477C163.23 50.9852 163.09 51.0181 162.936 51.0467C162.782 51.075 162.616 51.0994 162.44 51.1181C162.263 51.1365 162.087 51.1467 161.911 51.1467C161.463 51.1467 161.075 51.0796 160.742 50.9477C160.413 50.8165 160.139 50.6353 159.922 50.4064C159.704 50.1762 159.543 49.9049 159.439 49.5905C159.336 49.2761 159.283 48.9361 159.283 48.5717V48.5717Z" fill="#22425A"/>
<path d="M164.613 48.5345C164.613 48.1773 164.672 47.8386 164.788 47.5212C164.904 47.2042 165.073 46.9267 165.293 46.6909C165.514 46.4554 165.782 46.2693 166.097 46.1308C166.411 45.9923 166.77 45.924 167.174 45.924C167.439 45.924 167.681 45.9466 167.901 45.9937C168.122 46.041 168.337 46.1081 168.545 46.1966L168.251 47.3183C168.119 47.2683 167.975 47.224 167.815 47.1868C167.658 47.1483 167.482 47.1296 167.287 47.1296C166.871 47.1296 166.561 47.2585 166.356 47.517C166.151 47.7741 166.048 48.1145 166.048 48.5345C166.048 48.9804 166.146 49.3274 166.338 49.5717C166.529 49.8161 166.864 49.9391 167.344 49.9391C167.513 49.9391 167.696 49.9246 167.893 49.8917C168.088 49.8618 168.267 49.8105 168.431 49.7417L168.629 50.8908C168.464 50.9608 168.261 51.0207 168.015 51.071C167.77 51.1207 167.498 51.148 167.202 51.148C166.748 51.148 166.358 51.0796 166.03 50.9437C165.703 50.8092 165.434 50.6251 165.222 50.3919C165.011 50.1604 164.857 49.8848 164.759 49.5674C164.662 49.2501 164.613 48.9058 164.613 48.5345V48.5345Z" fill="#22425A"/>
<path d="M173.496 47.205H171.909V51.0145H170.5V47.205H168.913V46.0549H173.496V47.205Z" fill="#22425A"/>
<path d="M177.371 48.5255C177.371 48.0924 177.283 47.751 177.11 47.5021C176.937 47.2538 176.691 47.1295 176.368 47.1295C176.048 47.1295 175.799 47.2538 175.622 47.5021C175.446 47.751 175.357 48.0924 175.357 48.5255C175.357 48.96 175.446 49.3026 175.622 49.5588C175.799 49.813 176.048 49.9403 176.368 49.9403C176.691 49.9403 176.937 49.813 177.11 49.5588C177.283 49.3026 177.371 48.96 177.371 48.5255ZM178.808 48.5255C178.808 48.9142 178.75 49.2714 178.637 49.596C178.524 49.9199 178.359 50.1958 178.146 50.426C177.932 50.6559 177.674 50.8319 177.375 50.9578C177.076 51.0834 176.741 51.1476 176.368 51.1476C176.004 51.1476 175.671 51.0834 175.372 50.9578C175.074 50.8319 174.816 50.6559 174.601 50.426C174.387 50.1958 174.22 49.9199 174.101 49.596C173.981 49.2714 173.921 48.9142 173.921 48.5255C173.921 48.1368 173.982 47.781 174.105 47.4597C174.229 47.1394 174.398 46.8667 174.617 46.6395C174.833 46.4136 175.092 46.2376 175.391 46.112C175.689 45.986 176.016 45.9232 176.368 45.9232C176.728 45.9232 177.057 45.986 177.357 46.112C177.656 46.2376 177.912 46.4136 178.127 46.6395C178.341 46.8667 178.508 47.1394 178.627 47.4597C178.747 47.781 178.808 48.1368 178.808 48.5255V48.5255Z" fill="#22425A"/>
<path d="M182.89 48.5722C182.89 48.1378 182.792 47.7918 182.596 47.5307C182.401 47.269 182.112 47.1391 181.727 47.1391C181.602 47.1391 181.485 47.1437 181.377 47.1532C181.272 47.1634 181.183 47.1736 181.114 47.1861V49.7226C181.201 49.7795 181.316 49.8252 181.458 49.8644C181.601 49.9012 181.744 49.9196 181.889 49.9196C182.556 49.9196 182.89 49.471 182.89 48.5722ZM184.326 48.5338C184.326 48.9179 184.279 49.2668 184.185 49.5812C184.09 49.8956 183.951 50.1656 183.769 50.3912C183.586 50.6184 183.359 50.7944 183.089 50.9203C182.818 51.0443 182.506 51.1085 182.152 51.1085C181.957 51.1085 181.775 51.09 181.605 51.0516C181.435 51.0141 181.272 50.9598 181.114 50.8914V52.7594H179.704V46.2245C179.831 46.1876 179.977 46.1502 180.14 46.116C180.303 46.0817 180.475 46.0515 180.654 46.0258C180.835 46.0015 181.017 45.9801 181.202 45.9643C181.389 45.9502 181.568 45.9417 181.737 45.9417C182.146 45.9417 182.512 46.0028 182.832 46.1245C183.155 46.2488 183.425 46.4205 183.646 46.6444C183.866 46.8677 184.036 47.1391 184.152 47.459C184.268 47.7807 184.326 48.1378 184.326 48.5338V48.5338Z" fill="#22425A"/>
<path d="M187.123 50.0344C187.262 50.0344 187.394 50.0314 187.52 50.0245C187.646 50.0173 187.748 50.0087 187.822 49.9959V48.9313C187.766 48.9182 187.68 48.9054 187.567 48.8929C187.454 48.8797 187.351 48.8741 187.255 48.8741C187.123 48.8741 186.999 48.881 186.883 48.8985C186.765 48.9142 186.663 48.9425 186.574 48.9869C186.487 49.0313 186.417 49.0912 186.367 49.1671C186.317 49.2428 186.291 49.3355 186.291 49.4496C186.291 49.67 186.365 49.8216 186.514 49.9071C186.662 49.9916 186.865 50.0344 187.123 50.0344V50.0344ZM187.01 45.9232C187.425 45.9232 187.772 45.9702 188.048 46.0646C188.326 46.159 188.548 46.2935 188.716 46.4704C188.883 46.6447 189 46.8595 189.07 47.1111C189.14 47.362 189.174 47.6425 189.174 47.951V50.8733C188.972 50.9177 188.693 50.969 188.334 51.0275C187.974 51.089 187.54 51.119 187.029 51.119C186.706 51.119 186.415 51.0903 186.155 51.0331C185.893 50.9759 185.668 50.8832 185.479 50.7546C185.29 50.6273 185.145 50.4576 185.043 50.2501C184.943 50.0432 184.893 49.79 184.893 49.4871C184.893 49.1987 184.95 48.9527 185.068 48.7511C185.184 48.5499 185.34 48.391 185.536 48.271C185.731 48.1513 185.954 48.0654 186.207 48.0112C186.459 47.9579 186.719 47.9309 186.991 47.9309C187.173 47.9309 187.335 47.9398 187.478 47.9553C187.62 47.9711 187.735 47.9911 187.822 48.0155V47.8839C187.822 47.6452 187.75 47.4538 187.604 47.3094C187.46 47.1653 187.209 47.0923 186.85 47.0923C186.611 47.0923 186.374 47.1111 186.139 47.1449C185.907 47.1778 185.705 47.2281 185.536 47.291L185.355 46.159C185.437 46.1347 185.54 46.1061 185.662 46.0788C185.786 46.0505 185.92 46.0245 186.065 46.0031C186.209 45.9804 186.362 45.9617 186.523 45.9459C186.683 45.9308 186.847 45.9232 187.01 45.9232V45.9232Z" fill="#22425A"/>
<path d="M194.541 51.0145H193.134V49.0529H191.669V51.0145H190.261V46.0549H191.669V47.9025H193.134V46.0549H194.541V51.0145Z" fill="#22425A"/>
<path d="M202.139 51.0145H200.732V46.0549H202.139V51.0145ZM197.783 50.0345C198.042 50.0345 198.245 49.9842 198.393 49.8885C198.542 49.7898 198.615 49.6313 198.615 49.4113C198.615 49.2985 198.589 49.2025 198.539 49.1239C198.489 49.0453 198.42 48.9825 198.331 48.9355C198.244 48.8881 198.141 48.8552 198.025 48.8368C197.907 48.818 197.783 48.8082 197.651 48.8082C197.556 48.8082 197.452 48.8141 197.339 48.8269C197.225 48.8394 197.141 48.8526 197.084 48.8654V49.9957C197.16 50.0085 197.26 50.0171 197.387 50.0243C197.512 50.0316 197.645 50.0345 197.783 50.0345ZM197.084 47.818C197.173 47.7936 197.287 47.7739 197.429 47.7565C197.571 47.741 197.732 47.7338 197.916 47.7338C198.205 47.7338 198.479 47.7683 198.734 47.8377C198.989 47.9068 199.211 48.0123 199.4 48.1524C199.588 48.2938 199.737 48.4737 199.848 48.6914C199.958 48.9068 200.014 49.1611 200.014 49.4498C200.014 49.7382 199.963 49.9888 199.862 50.1986C199.762 50.4101 199.617 50.5818 199.428 50.7186C199.239 50.8531 199.013 50.953 198.752 51.0188C198.49 51.0859 198.199 51.1188 197.877 51.1188C197.462 51.1188 197.081 51.0974 196.734 51.056C196.388 51.0159 196.036 50.9514 195.676 50.8643V46.0549H197.084V47.818Z" fill="#22425A"/>
<path d="M221.805 50.0344C221.944 50.0344 222.075 50.0314 222.202 50.0245C222.328 50.0173 222.429 50.0087 222.504 49.9959V48.9313C222.448 48.9182 222.362 48.9054 222.249 48.8929C222.136 48.8797 222.031 48.8741 221.937 48.8741C221.805 48.8741 221.681 48.881 221.564 48.8985C221.447 48.9142 221.345 48.9425 221.257 48.9869C221.169 49.0313 221.099 49.0912 221.049 49.1671C220.999 49.2428 220.973 49.3355 220.973 49.4496C220.973 49.67 221.047 49.8216 221.195 49.9071C221.344 49.9916 221.547 50.0344 221.805 50.0344V50.0344ZM221.692 45.9232C222.107 45.9232 222.454 45.9702 222.73 46.0646C223.008 46.159 223.23 46.2935 223.398 46.4704C223.565 46.6447 223.683 46.8595 223.751 47.1111C223.821 47.362 223.856 47.6425 223.856 47.951V50.8733C223.654 50.9177 223.373 50.969 223.014 51.0275C222.656 51.089 222.22 51.119 221.711 51.119C221.388 51.119 221.097 51.0903 220.837 51.0331C220.574 50.9759 220.35 50.8832 220.161 50.7546C219.971 50.6273 219.827 50.4576 219.725 50.2501C219.625 50.0432 219.575 49.79 219.575 49.4871C219.575 49.1987 219.632 48.9527 219.75 48.7511C219.866 48.5499 220.022 48.391 220.218 48.271C220.413 48.1513 220.636 48.0654 220.888 48.0112C221.14 47.9579 221.401 47.9309 221.673 47.9309C221.855 47.9309 222.017 47.9398 222.16 47.9553C222.302 47.9711 222.417 47.9911 222.504 48.0155V47.8839C222.504 47.6452 222.431 47.4538 222.286 47.3094C222.142 47.1653 221.891 47.0923 221.532 47.0923C221.291 47.0923 221.056 47.1111 220.821 47.1449C220.589 47.1778 220.387 47.2281 220.218 47.291L220.037 46.159C220.119 46.1347 220.223 46.1061 220.344 46.0788C220.467 46.0505 220.602 46.0245 220.747 46.0031C220.891 45.9804 221.044 45.9617 221.205 45.9459C221.365 45.9308 221.529 45.9232 221.692 45.9232V45.9232Z" fill="#22425A"/>
<path d="M226.351 47.7849C226.485 47.6533 226.632 47.509 226.786 47.3521C226.941 47.1959 227.091 47.0403 227.237 46.8874C227.382 46.7348 227.52 46.5845 227.651 46.4385C227.783 46.2915 227.9 46.1642 228.005 46.0541H229.715C229.59 46.1876 229.434 46.353 229.248 46.5461C229.064 46.7414 228.866 46.9446 228.658 47.1548C228.45 47.3646 228.24 47.5747 228.03 47.7823C227.818 47.9891 227.62 48.1723 227.432 48.3321C227.621 48.4765 227.822 48.658 228.035 48.8708C228.248 49.0865 228.458 49.3164 228.664 49.5611C228.867 49.8068 229.064 50.0541 229.248 50.3056C229.434 50.5569 229.593 50.794 229.723 51.014H228.121C228.008 50.8443 227.878 50.6671 227.733 50.4799C227.588 50.2938 227.438 50.1113 227.282 49.9297C227.127 49.7495 226.967 49.5795 226.805 49.4223C226.643 49.2651 226.491 49.1283 226.351 49.0135V51.014H224.943V46.0541H226.351V47.7849V47.7849Z" fill="#22425A"/>
<path d="M234.582 47.205H232.995V51.0145H231.587V47.205H229.999V46.0549H234.582V47.205Z" fill="#22425A"/>
<path d="M239.77 46.0549V51.0145H238.352C238.352 50.7005 238.357 50.3874 238.363 50.0756C238.368 49.7655 238.375 49.4784 238.381 49.2143C238.388 48.9496 238.396 48.7184 238.406 48.5211C238.414 48.3221 238.42 48.1768 238.42 48.0824C238.236 48.3409 238.054 48.601 237.872 48.8654C237.688 49.1285 237.514 49.3883 237.347 49.6428C237.18 49.8971 237.022 50.1414 236.874 50.3729C236.727 50.6061 236.595 50.8185 236.482 51.0145H235.243V46.0549H236.652C236.652 46.369 236.651 46.6706 236.647 46.9547C236.644 47.2421 236.64 47.5009 236.634 47.7338C236.627 47.9666 236.621 48.1679 236.614 48.3409C236.608 48.5139 236.605 48.6484 236.605 48.7427C236.983 48.1893 237.332 47.6923 237.649 47.252C237.967 46.812 238.278 46.4134 238.58 46.0549H239.77V46.0549Z" fill="#22425A"/>
<path d="M242.312 49.9772C242.401 49.9903 242.519 50.0015 242.668 50.01C242.815 50.0202 242.953 50.0242 243.078 50.0242C243.393 50.0242 243.639 49.9844 243.815 49.9071C243.991 49.8285 244.08 49.6845 244.08 49.4769C244.08 49.277 244 49.1372 243.839 49.0586C243.679 48.9794 243.444 48.9399 243.134 48.9399H242.312V49.9772ZM243.106 47.9964C243.339 47.9964 243.528 47.9665 243.673 47.9083C243.818 47.8478 243.891 47.7179 243.891 47.5166C243.891 47.3278 243.809 47.1992 243.646 47.1292C243.481 47.0608 243.268 47.0262 243.003 47.0262C242.914 47.0262 242.799 47.0309 242.657 47.0404C242.516 47.0489 242.401 47.0608 242.312 47.072V47.9964H243.106ZM243.059 51.1088C242.883 51.1088 242.693 51.1015 242.491 51.0904C242.289 51.0772 242.092 51.0604 241.897 51.0371C241.701 51.016 241.518 50.9904 241.344 50.9631C241.171 50.9345 241.025 50.9072 240.905 50.8815V46.1304C241.025 46.1061 241.171 46.0818 241.344 46.0604C241.518 46.0377 241.701 46.0173 241.897 45.9976C242.092 45.9788 242.289 45.9647 242.491 45.9561C242.693 45.9459 242.883 45.9417 243.059 45.9417C243.468 45.9417 243.813 45.9834 244.094 46.0646C244.373 46.1462 244.601 46.2531 244.774 46.3846C244.948 46.5175 245.072 46.6645 245.147 46.8279C245.224 46.9921 245.261 47.1552 245.261 47.3193C245.261 47.538 245.207 47.7392 245.1 47.9224C244.993 48.1039 244.858 48.2368 244.695 48.318C244.783 48.3552 244.872 48.4098 244.963 48.4782C245.055 48.5482 245.138 48.6311 245.214 48.7285C245.29 48.8251 245.352 48.9425 245.398 49.0767C245.446 49.2129 245.469 49.3684 245.469 49.5427C245.469 49.7443 245.429 49.94 245.352 50.1271C245.271 50.3169 245.138 50.4829 244.949 50.6273C244.76 50.773 244.511 50.8891 244.203 50.9759C243.894 51.0647 243.513 51.1088 243.059 51.1088V51.1088Z" fill="#22425A"/>
<path d="M250.894 46.0549V51.0145H249.476C249.476 50.7005 249.479 50.3874 249.486 50.0756C249.492 49.7655 249.498 49.4784 249.505 49.2143C249.511 48.9496 249.52 48.7184 249.528 48.5211C249.538 48.3221 249.542 48.1768 249.542 48.0824C249.36 48.3409 249.177 48.601 248.994 48.8654C248.812 49.1285 248.637 49.3883 248.47 49.6428C248.302 49.8971 248.146 50.1414 247.997 50.3729C247.849 50.6061 247.719 50.8185 247.606 51.0145H246.367V46.0549H247.775C247.775 46.369 247.773 46.6706 247.771 46.9547C247.766 47.2421 247.762 47.5009 247.756 47.7338C247.75 47.9666 247.743 48.1679 247.738 48.3409C247.732 48.5139 247.727 48.6484 247.727 48.7427C248.106 48.1893 248.454 47.6923 248.773 47.252C249.091 46.812 249.401 46.4134 249.703 46.0549H250.894V46.0549Z" fill="#22425A"/>
<path d="M256.138 47.205H254.551V51.0145H253.143V47.205H251.555V46.0549H256.138V47.205Z" fill="#22425A"/>
<path d="M261.326 46.0549V51.0145H259.908C259.908 50.7005 259.912 50.3874 259.918 50.0756C259.924 49.7655 259.93 49.4784 259.937 49.2143C259.944 48.9496 259.951 48.7184 259.96 48.5211C259.97 48.3221 259.975 48.1768 259.975 48.0824C259.792 48.3409 259.609 48.601 259.427 48.8654C259.244 49.1285 259.069 49.3883 258.903 49.6428C258.735 49.8971 258.577 50.1414 258.43 50.3729C258.282 50.6061 258.151 50.8185 258.038 51.0145H256.799V46.0549H258.208C258.208 46.369 258.205 46.6706 258.202 46.9547C258.2 47.2421 258.194 47.5009 258.19 47.7338C258.182 47.9666 258.176 48.1679 258.169 48.3409C258.164 48.5139 258.161 48.6484 258.161 48.7427C258.537 48.1893 258.886 47.6923 259.205 47.252C259.523 46.812 259.834 46.4134 260.135 46.0549H261.326V46.0549Z" fill="#22425A"/>
<path d="M268.82 46.0549V51.0145H267.413V47.2234H265.947V51.0145H264.54V46.0549H268.82Z" fill="#22425A"/>
<path d="M271.854 50.0344C271.993 50.0344 272.125 50.0314 272.251 50.0245C272.377 50.0173 272.478 50.0087 272.553 49.9959V48.9313C272.497 48.9182 272.411 48.9054 272.298 48.8929C272.185 48.8797 272.081 48.8741 271.986 48.8741C271.854 48.8741 271.729 48.881 271.613 48.8985C271.496 48.9142 271.394 48.9425 271.305 48.9869C271.217 49.0313 271.148 49.0912 271.098 49.1671C271.048 49.2428 271.022 49.3355 271.022 49.4496C271.022 49.67 271.096 49.8216 271.244 49.9071C271.393 49.9916 271.596 50.0344 271.854 50.0344V50.0344ZM271.741 45.9232C272.156 45.9232 272.503 45.9702 272.779 46.0646C273.057 46.159 273.279 46.2935 273.446 46.4704C273.614 46.6447 273.732 46.8595 273.8 47.1111C273.87 47.362 273.905 47.6425 273.905 47.951V50.8733C273.703 50.9177 273.422 50.969 273.063 51.0275C272.705 51.089 272.269 51.119 271.759 51.119C271.437 51.119 271.146 51.0903 270.884 51.0331C270.624 50.9759 270.399 50.8832 270.21 50.7546C270.021 50.6273 269.876 50.4576 269.775 50.2501C269.674 50.0432 269.624 49.79 269.624 49.4871C269.624 49.1987 269.682 48.9527 269.797 48.7511C269.915 48.5499 270.071 48.391 270.267 48.271C270.462 48.1513 270.686 48.0654 270.937 48.0112C271.189 47.9579 271.45 47.9309 271.721 47.9309C271.904 47.9309 272.066 47.9398 272.209 47.9553C272.35 47.9711 272.464 47.9911 272.553 48.0155V47.8839C272.553 47.6452 272.48 47.4538 272.335 47.3094C272.19 47.1653 271.94 47.0923 271.58 47.0923C271.34 47.0923 271.104 47.1111 270.87 47.1449C270.638 47.1778 270.436 47.2281 270.267 47.291L270.087 46.159C270.168 46.1347 270.271 46.1061 270.393 46.0788C270.516 46.0505 270.651 46.0245 270.795 46.0031C270.94 45.9804 271.093 45.9617 271.254 45.9459C271.414 45.9308 271.576 45.9232 271.741 45.9232V45.9232Z" fill="#22425A"/>
<path d="M278.176 48.5722C278.176 48.1378 278.079 47.7918 277.883 47.5307C277.688 47.269 277.399 47.1391 277.014 47.1391C276.889 47.1391 276.771 47.1437 276.664 47.1532C276.558 47.1634 276.469 47.1736 276.4 47.1861V49.7226C276.488 49.7795 276.602 49.8252 276.744 49.8644C276.886 49.9012 277.03 49.9196 277.175 49.9196C277.843 49.9196 278.176 49.471 278.176 48.5722ZM279.613 48.5338C279.613 48.9179 279.566 49.2668 279.471 49.5812C279.376 49.8956 279.238 50.1656 279.056 50.3912C278.872 50.6184 278.646 50.7944 278.376 50.9203C278.105 51.0443 277.792 51.1085 277.438 51.1085C277.244 51.1085 277.062 51.09 276.892 51.0516C276.721 51.0141 276.558 50.9598 276.4 50.8914V52.7594H274.991V46.2245C275.117 46.1876 275.263 46.1502 275.426 46.116C275.59 46.0817 275.761 46.0515 275.94 46.0258C276.121 46.0015 276.303 45.9801 276.489 45.9643C276.675 45.9502 276.854 45.9417 277.023 45.9417C277.433 45.9417 277.798 46.0028 278.119 46.1245C278.441 46.2488 278.712 46.4205 278.933 46.6444C279.153 46.8677 279.322 47.1391 279.438 47.459C279.554 47.7807 279.613 48.1378 279.613 48.5338V48.5338Z" fill="#22425A"/>
<path d="M281.919 47.7849C282.053 47.6533 282.199 47.509 282.354 47.3521C282.508 47.1959 282.658 47.0403 282.805 46.8874C282.95 46.7348 283.088 46.5845 283.219 46.4385C283.35 46.2915 283.468 46.1642 283.573 46.0541H285.282C285.158 46.1876 285.002 46.353 284.816 46.5461C284.631 46.7414 284.433 46.9446 284.226 47.1548C284.018 47.3646 283.808 47.5747 283.597 47.7823C283.385 47.9891 283.187 48.1723 283.001 48.3321C283.189 48.4765 283.389 48.658 283.603 48.8708C283.816 49.0865 284.026 49.3164 284.231 49.5611C284.435 49.8068 284.631 50.0541 284.816 50.3056C285.002 50.5569 285.161 50.794 285.292 51.014H283.689C283.575 50.8443 283.447 50.6671 283.3 50.4799C283.156 50.2938 283.005 50.1113 282.849 49.9297C282.695 49.7495 282.536 49.5795 282.372 49.4223C282.21 49.2651 282.059 49.1283 281.919 49.0135V51.014H280.51V46.0541H281.919V47.7849Z" fill="#22425A"/>
<path d="M290.386 46.0549V51.0145H288.968C288.968 50.7005 288.972 50.3874 288.978 50.0756C288.983 49.7655 288.991 49.4784 288.997 49.2143C289.004 48.9496 289.011 48.7184 289.021 48.5211C289.03 48.3221 289.035 48.1768 289.035 48.0824C288.852 48.3409 288.67 48.601 288.487 48.8654C288.303 49.1285 288.129 49.3883 287.963 49.6428C287.795 49.8971 287.637 50.1414 287.49 50.3729C287.343 50.6061 287.211 50.8185 287.097 51.0145H285.859V46.0549H287.268C287.268 46.369 287.267 46.6706 287.262 46.9547C287.259 47.2421 287.255 47.5009 287.249 47.7338C287.242 47.9666 287.237 48.1679 287.229 48.3409C287.224 48.5139 287.221 48.6484 287.221 48.7427C287.599 48.1893 287.947 47.6923 288.265 47.252C288.583 46.812 288.893 46.4134 289.196 46.0549H290.386V46.0549Z" fill="#22425A"/>
<path d="M227.216 38.0202C224.369 38.0202 224.035 30.2711 224.028 29.2539C224.014 27.5718 224.631 20.5502 227.216 20.5502C229.486 20.5502 230.247 26.9486 230.232 29.2539C230.218 31.4659 229.681 38.0202 227.216 38.0202ZM227.216 19.684C217.886 19.684 217.228 27.8076 217.228 29.4167C217.228 30.8525 218.07 38.9492 227.216 38.9492C236.415 38.9492 237.211 31.1998 237.211 28.9764C237.211 26.8917 235.811 19.684 227.216 19.684Z" fill="#22425A"/>
<path d="M248.495 38.0202C245.648 38.0202 245.314 30.2711 245.305 29.2539C245.293 27.5718 245.91 20.5502 248.495 20.5502C250.765 20.5502 251.526 26.9486 251.511 29.2539C251.497 31.4659 250.96 38.0202 248.495 38.0202ZM248.495 19.684C239.165 19.684 238.506 27.8076 238.506 29.4167C238.506 30.8525 239.349 38.9492 248.495 38.9492C257.694 38.9492 258.491 31.1998 258.491 28.9764C258.491 26.8917 257.09 19.684 248.495 19.684Z" fill="#22425A"/>
<path d="M291.749 36.4255C291.749 36.4255 291.448 36.7925 290.864 36.7925C289.996 36.7925 289.887 35.7336 289.826 35.0607V35.0505C289.826 32.3712 289.824 28.8606 289.829 26.8368C289.83 26.3497 290.526 19.7609 284.966 19.7609C281.077 19.7609 279.003 22.6931 278.177 24.2322C277.864 22.2087 276.801 19.7593 273.411 19.7593C268.143 19.7593 266.191 25.154 266.191 25.154V20.0296C266.191 20.0296 263.201 20.8656 259.768 20.8656V38.6986H266.191C266.191 38.6986 266.188 30.4954 266.191 26.9072C266.191 26.9072 267.206 22.9989 269.961 22.9989C271.486 22.9989 271.9 24.2348 271.911 26.0314C271.936 30.1981 271.911 38.6986 271.911 38.6986H278.273C278.273 38.6986 278.266 30.4254 278.273 26.8384C278.273 26.7141 278.319 26.1998 278.295 25.5009C278.856 24.3808 279.877 22.9989 281.514 22.9989C283.041 22.9989 283.455 24.2348 283.467 26.0297C283.48 28.2032 283.48 31.5527 283.475 34.2602C283.484 34.9134 283.693 37.7959 286.009 38.6986C286.447 38.8703 286.964 38.9702 287.567 38.9702C288.278 38.9702 288.89 38.8647 289.415 38.6986C289.558 38.6562 289.697 38.6046 289.829 38.5503C291.383 37.9143 292 36.7754 292 36.7754L291.749 36.4255V36.4255Z" fill="#22425A"/>
<path d="M184.617 32.3035C184.619 33.5209 184.17 34.7157 183.292 35.5619C182.844 35.9943 182.297 36.3261 181.677 36.3261C178.57 36.3261 178.38 30.72 178.365 29.7087C178.334 27.4165 179.306 20.1845 182.403 20.1845H182.411C184.02 20.1845 184.623 22.0708 184.619 22.8496C184.612 25.6104 184.613 29.297 184.617 32.3035V32.3035ZM129.678 20.5475C130.297 20.5475 132.142 21.1076 132.142 25.2671C132.142 27.7539 130.829 30.8301 126.622 31.5148C125.575 27.4507 127.093 20.5475 129.678 20.5475ZM192.334 36.4633C191.687 36.2515 191.036 35.8016 191.036 33.7324C191.036 33.2637 191.024 19.6816 191.024 19.6816C191.024 19.6816 189.31 20.7675 187.264 20.7675C185.82 20.7675 184.349 19.7188 182.33 19.7188C174.917 19.7188 171.303 25.3374 171.303 30.5516C171.303 32.9151 171.77 34.7499 172.602 36.0989C172.379 36.1791 172.137 36.2288 171.869 36.2288C169.332 36.2288 167.639 33.2651 166.775 31.2231C166.359 30.2487 165.481 27.9595 162.671 27.9595C162.523 27.9569 162.39 27.9552 162.264 27.9522C162.578 27.8523 162.902 27.7335 163.24 27.5836C168.857 25.076 168.857 18.6371 168.857 18.6371C165.831 19.7816 162.724 19.6589 162.724 19.6589C162.329 27.085 159.025 27.8595 157.956 27.9138V12.7084C157.956 12.7084 155.58 13.9489 151.56 13.9489C151.602 20.146 151.578 26.8091 151.578 33.0039C151.578 34.7025 149.957 36.4718 148.13 36.4718C147.124 36.4718 146.719 35.7414 146.682 34.1928C146.677 34.0096 146.677 33.8327 146.677 33.6495V22.2382C146.677 20.3558 146.667 19.946 146.659 19.873C146.659 19.873 144.508 21.1678 140.479 21.2033V33.884C139.171 35.3974 136.132 37.4936 133.571 37.4936C128.259 37.4936 126.9 32.4978 126.9 32.4978C136.71 34.4957 139.508 27.3179 137.338 23.5027C136.667 22.3224 134.482 19.6816 129.678 19.6816C120.346 19.6816 119.689 27.8036 119.689 29.4157C119.689 33.9067 123.198 39.3382 132.027 38.9452C135.589 38.788 138.505 37.0135 140.479 35.2728V35.4043C140.771 36.8721 141.689 38.9452 144.831 38.9452C149.194 38.9452 151.583 35.3543 151.583 35.3543C151.583 36.4945 151.57 38.6496 151.57 38.6496H157.956V28.6471C158.702 28.7984 159.315 29.3729 159.456 30.1402L159.46 30.1602C159.937 32.8178 161.826 39.2797 167.428 39.2797C170.077 39.2797 171.929 38.1724 173.141 36.849C173.164 36.876 173.185 36.9063 173.208 36.9319C174.422 38.3223 176.154 38.988 178.219 38.988C182.983 38.988 184.558 35.2001 184.619 35.0857C184.619 36.2663 185.93 38.8581 189.041 38.8739C192.981 38.8936 194.213 36.6405 194.213 36.6405L193.919 36.2176C193.919 36.2176 193.196 36.7431 192.334 36.4633V36.4633Z" fill="#22425A"/>
<path d="M143.563 19.1469C145.597 19.1509 147.254 17.5779 147.234 15.6629C147.214 13.8308 145.55 12.3605 143.507 12.3736C141.398 12.3878 139.766 13.87 139.761 15.7774C139.756 17.6095 141.486 19.144 143.563 19.1469V19.1469Z" fill="#22425A"/>
<path d="M124.386 20.4363V13.7087H101.828V20.4363L102.527 20.4317C102.527 20.4317 107.019 20.4748 108.845 14.7391H109.745V38.6982H116.47V14.7391H117.369C119.009 20.3988 123.686 20.4317 123.686 20.4317L124.386 20.4363V20.4363Z" fill="#22425A"/>
<path d="M205.537 37.223C203.642 37.7373 202.497 36.4541 202.497 36.4541C202.496 33.7991 202.495 29.565 202.496 25.6571L203.406 25.6555C203.837 25.6541 204.27 25.6824 204.687 25.784C208.293 26.6503 208.558 30.6509 208.578 31.0212C208.731 33.8432 208.052 36.5383 205.537 37.223V37.223ZM202.497 15.4659C202.497 15.4574 203.119 14.5326 204.959 14.5326C207.819 14.5326 208.052 18.105 208.052 18.6881C208.052 19.701 207.814 21.0188 207.284 22.2103C206.454 24.0723 204.54 25.0323 202.496 25.0313V24.4992C202.496 19.7056 202.497 15.4613 202.497 15.4659V15.4659ZM205.646 25.224C206.161 25.224 215.129 24.4807 215.129 18.0633C215.129 16.9428 214.213 13.105 208.824 13.105C206.522 13.105 204.839 13.5878 203.79 14.0225C202.274 14.6513 200.65 15.0068 199.01 14.9299C197.935 14.8795 196.716 14.7098 195.509 14.2997C195.509 15.6172 195.518 37.6515 195.518 38.7002H202.497V37.3943C202.497 37.3943 203.774 39.0103 208.194 39.0103C214.765 39.0103 215.932 34.941 215.932 32.267C215.932 29.9593 215.023 25.224 205.646 25.224V25.224Z" fill="#22425A"/>
<path d="M206.534 48.2318L208.467 49.5035C208.661 49.6308 208.778 49.8433 208.782 50.0751L208.829 52.3844C208.841 52.9658 209.515 53.2815 209.971 52.9185L211.78 51.4771C211.961 51.3324 212.201 51.2866 212.423 51.3537L214.639 52.0243C215.196 52.191 215.706 51.6494 215.501 51.1051L214.685 48.9435C214.604 48.7274 214.635 48.4844 214.766 48.2943L216.09 46.3997C216.424 45.9225 216.063 45.2724 215.481 45.298L213.168 45.4039C212.937 45.4138 212.715 45.3108 212.575 45.1267L211.177 43.286C210.826 42.8217 210.095 42.9618 209.94 43.5235L209.325 45.7495C209.264 45.9712 209.096 46.1498 208.877 46.2254L206.69 46.9828C206.14 47.1742 206.048 47.9118 206.534 48.2318Z" fill="#22425A"/>
</svg>
